<svg width="399" height="57" viewBox="0 0 399 57" fill="none" xmlns="http://www.w3.org/2000/svg">
<rect width="399" height="57" rx="8" fill="#FED549"/>
<path d="M167.414 28.68C167.432 31.974 170.042 33.27 172.994 33.27C175.82 33.27 178.592 32.226 178.592 28.968C178.592 26.646 176.72 25.782 174.866 25.26C172.994 24.738 171.14 24.558 171.14 23.568C171.14 22.722 172.04 22.47 172.76 22.47C173.786 22.47 174.884 22.848 174.83 24.018H178.178C178.16 21.12 175.586 19.878 173.03 19.878C170.618 19.878 167.792 20.976 167.792 23.784C167.792 26.142 169.718 26.97 171.554 27.492C173.408 28.014 175.244 28.23 175.244 29.364C175.244 30.318 174.2 30.678 173.192 30.678C171.77 30.678 170.834 30.192 170.762 28.68H167.414ZM188.933 23.658H185.873V28.662C185.873 30.318 184.865 30.75 184.199 30.75C183.227 30.75 182.687 30.318 182.687 29.076V23.658H179.627V29.274C179.627 31.722 180.401 33.27 183.083 33.27C184.163 33.27 185.351 32.676 185.927 31.722H185.963V33H188.933V23.658ZM190.597 33H193.513V31.92H193.549C194.143 32.802 195.043 33.27 196.123 33.27C199.057 33.27 200.299 30.75 200.299 28.122C200.299 25.692 199.003 23.388 196.357 23.388C195.205 23.388 194.323 23.82 193.693 24.684H193.657V20.148H190.597V33ZM195.421 25.728C196.771 25.728 197.239 27.042 197.239 28.23C197.239 29.508 196.771 30.93 195.403 30.93C194.017 30.93 193.549 29.868 193.549 28.23C193.549 26.304 194.593 25.728 195.421 25.728ZM201.548 33H204.608V28.446C204.608 26.538 205.076 25.908 206.174 25.908C207.002 25.908 207.326 26.592 207.326 27.69V33H210.386V28.428C210.386 26.916 210.512 25.908 211.826 25.908C212.618 25.908 213.104 26.502 213.104 27.51V33H216.164V27.42C216.164 25.638 215.84 23.388 212.87 23.388C211.61 23.388 210.692 23.91 209.954 24.9C209.45 23.766 208.406 23.388 207.236 23.388C206.102 23.388 205.112 24 204.554 24.936H204.518V23.658H201.548V33ZM217.933 33H220.993V23.658H217.933V33ZM220.993 20.148H217.933V22.488H220.993V20.148ZM228.399 23.658H226.509V20.832H223.449V23.658H221.901V25.638H223.449V29.796C223.449 32.334 224.115 33.09 226.725 33.09C227.283 33.09 227.841 33.018 228.399 33V30.75C228.129 30.75 227.859 30.786 227.607 30.786C226.941 30.786 226.509 30.624 226.509 29.886V25.638H228.399V23.658Z" fill="black"/>
<line x1="127.593" y1="44.96" x2="127.593" y2="56.5" stroke="black" stroke-linecap="round" stroke-linejoin="round"/>
<line x1="272.338" y1="44.96" x2="272.338" y2="56.5" stroke="black" stroke-linecap="round" stroke-linejoin="round"/>
<line x1="175.841" y1="44.96" x2="175.841" y2="56.5" stroke="black" stroke-linecap="round" stroke-linejoin="round"/>
<line x1="320.586" y1="44.96" x2="320.586" y2="56.5" stroke="black" stroke-linecap="round" stroke-linejoin="round"/>
<line x1="368.788" y1="44.96" x2="368.788" y2="56.5" stroke="black" stroke-linecap="round" stroke-linejoin="round"/>
<line x1="224.09" y1="44.96" x2="224.09" y2="56.5" stroke="black" stroke-linecap="round" stroke-linejoin="round"/>
<line x1="79.3443" y1="44.96" x2="79.3443" y2="56.5" stroke="black" stroke-linecap="round" stroke-linejoin="round"/>
<line x1="31.5599" y1="44.96" x2="31.5599" y2="56.5" stroke="black" stroke-linecap="round" stroke-linejoin="round"/>
<line x1="139.655" y1="50.6599" x2="139.655" y2="56.4999" stroke="black" stroke-linecap="round" stroke-linejoin="round"/>
<line x1="284.4" y1="50.6599" x2="284.4" y2="56.4999" stroke="black" stroke-linecap="round" stroke-linejoin="round"/>
<line x1="332.602" y1="50.6599" x2="332.602" y2="56.4999" stroke="black" stroke-linecap="round" stroke-linejoin="round"/>
<line x1="187.903" y1="50.6599" x2="187.903" y2="56.4999" stroke="black" stroke-linecap="round" stroke-linejoin="round"/>
<line x1="236.152" y1="50.6599" x2="236.152" y2="56.4999" stroke="black" stroke-linecap="round" stroke-linejoin="round"/>
<line x1="91.4065" y1="50.6599" x2="91.4065" y2="56.4999" stroke="black" stroke-linecap="round" stroke-linejoin="round"/>
<line x1="43.6221" y1="50.6599" x2="43.6221" y2="56.4999" stroke="black" stroke-linecap="round" stroke-linejoin="round"/>
<line x1="151.717" y1="48.3799" x2="151.717" y2="56.4999" stroke="black" stroke-linecap="round" stroke-linejoin="round"/>
<line x1="296.462" y1="48.3799" x2="296.462" y2="56.4999" stroke="black" stroke-linecap="round" stroke-linejoin="round"/>
<line x1="344.664" y1="48.3799" x2="344.664" y2="56.4999" stroke="black" stroke-linecap="round" stroke-linejoin="round"/>
<line x1="199.965" y1="48.3799" x2="199.965" y2="56.4999" stroke="black" stroke-linecap="round" stroke-linejoin="round"/>
<line x1="248.214" y1="48.3799" x2="248.214" y2="56.4999" stroke="black" stroke-linecap="round" stroke-linejoin="round"/>
<line x1="103.469" y1="48.3799" x2="103.469" y2="56.4999" stroke="black" stroke-linecap="round" stroke-linejoin="round"/>
<line x1="55.6841" y1="48.3799" x2="55.6841" y2="56.4999" stroke="black" stroke-linecap="round" stroke-linejoin="round"/>
<line x1="163.779" y1="50.6599" x2="163.779" y2="56.4999" stroke="black" stroke-linecap="round" stroke-linejoin="round"/>
<line x1="308.524" y1="50.6599" x2="308.524" y2="56.4999" stroke="black" stroke-linecap="round" stroke-linejoin="round"/>
<line x1="356.726" y1="50.6599" x2="356.726" y2="56.4999" stroke="black" stroke-linecap="round" stroke-linejoin="round"/>
<line x1="212.027" y1="50.6599" x2="212.027" y2="56.4999" stroke="black" stroke-linecap="round" stroke-linejoin="round"/>
<line x1="260.276" y1="50.6599" x2="260.276" y2="56.4999" stroke="black" stroke-linecap="round" stroke-linejoin="round"/>
<line x1="115.531" y1="50.6599" x2="115.531" y2="56.4999" stroke="black" stroke-linecap="round" stroke-linejoin="round"/>
<line x1="67.7462" y1="50.6599" x2="67.7462" y2="56.4999" stroke="black" stroke-linecap="round" stroke-linejoin="round"/>
</svg>
