<svg width="52" height="38" viewBox="0 0 52 38" fill="none" xmlns="http://www.w3.org/2000/svg">
<path d="M2.75002 0.25H49.25C49.9352 0.25 50.5923 0.469493 51.0767 0.860194C51.5612 1.25089 51.8334 1.7808 51.8334 2.33333V35.6667C51.8334 36.2192 51.5612 36.7491 51.0767 37.1398C50.5923 37.5305 49.9352 37.75 49.25 37.75H2.75002C2.06488 37.75 1.4078 37.5305 0.923328 37.1398C0.438859 36.7491 0.166687 36.2192 0.166687 35.6667V2.33333C0.166687 1.7808 0.438859 1.25089 0.923328 0.860194C1.4078 0.469493 2.06488 0.25 2.75002 0.25ZM46.6667 9.07917L26.186 23.8708L5.33335 9.03333V33.5833H46.6667V9.07917ZM6.65344 4.41667L26.1576 18.2958L45.3802 4.41667H6.65344Z" fill="black"/>
</svg>
