<svg width="52" height="50" viewBox="0 0 52 50" fill="none" xmlns="http://www.w3.org/2000/svg">
<path d="M11.583 41.0256L0 50V2.5641C0 1.88406 0.273928 1.23187 0.761522 0.751008C1.24912 0.270146 1.91044 0 2.6 0H49.4C50.0896 0 50.7509 0.270146 51.2385 0.751008C51.7261 1.23187 52 1.88406 52 2.5641V38.4615C52 39.1416 51.7261 39.7938 51.2385 40.2746C50.7509 40.7555 50.0896 41.0256 49.4 41.0256H11.583ZM5.2 39.4487L9.7838 35.8974H46.8V5.12821H5.2V39.4487ZM26.0468 30L17.3134 21.3846C16.2163 20.3027 15.6 18.8352 15.6 17.3051C15.6 16.5475 15.7513 15.7973 16.0453 15.0973C16.3393 14.3974 16.7702 13.7614 17.3134 13.2256C17.8566 12.6899 18.5015 12.265 19.2113 11.975C19.921 11.6851 20.6818 11.5359 21.45 11.5359C23.0015 11.5359 24.4895 12.1437 25.5866 13.2256L26.0468 13.6795L26.507 13.2256C27.0502 12.6899 27.6951 12.265 28.4049 11.975C29.1146 11.6851 29.8754 11.5359 30.6436 11.5359C31.4118 11.5359 32.1726 11.6851 32.8823 11.975C33.5921 12.265 34.237 12.6899 34.7802 13.2256C35.3234 13.7614 35.7543 14.3974 36.0483 15.0973C36.3423 15.7973 36.4936 16.5475 36.4936 17.3051C36.4936 18.0628 36.3423 18.813 36.0483 19.5129C35.7543 20.2129 35.3234 20.8489 34.7802 21.3846L26.0442 29.9974L26.0468 30Z" fill="black"/>
</svg>
