<svg width="164" height="160" viewBox="0 0 164 160" fill="none" xmlns="http://www.w3.org/2000/svg">
<g opacity="0.2">
<path d="M44.18 151.858C33.5067 156.426 20.6502 155.436 10.8057 149.29C5.16577 145.773 0.29402 140.133 0.0110151 133.503C-0.292205 126.872 5.71155 119.999 12.2409 121.253C9.59276 116.745 7.00531 112.014 6.47973 106.799C5.95415 101.604 8.01602 95.7821 12.6856 93.417C16.1019 91.6785 20.5289 92.1637 23.4802 94.5894C24.592 85.796 27.5838 76.841 34.0323 70.7361C40.4807 64.6515 50.9519 62.2662 58.4516 66.9964C65.183 71.2213 67.8514 79.5901 69.6505 87.3324C71.9954 97.3992 73.7339 107.608 74.8254 117.877C75.4925 124.002 75.5936 131.057 71.0857 135.261" fill="#B8D374"/>
<path d="M150.853 14.4788H135.51V52.826H150.853V14.4788Z" fill="#E17A59"/>
<path d="M152.207 16.3991H134.155C133.165 16.3991 132.377 15.6108 132.377 14.6203V10.8199C132.377 9.82938 133.165 9.04102 134.155 9.04102H152.207C153.198 9.04102 153.986 9.82938 153.986 10.8199V14.6203C153.966 15.6108 153.177 16.3991 152.207 16.3991Z" fill="#B15E53"/>
<path d="M150.853 22.7061H135.51V24.1413H150.853V22.7061Z" fill="#B15E53"/>
<path d="M143.879 14.3574H142.443V23.4338H143.879V14.3574Z" fill="#B15E53"/>
<path d="M143.879 30.4281H142.443V38.9384H143.879V30.4281Z" fill="#B15E53"/>
<path d="M150.853 30.3068H135.51V31.7421H150.853V30.3068Z" fill="#B15E53"/>
<path d="M150.853 37.8873H135.51V39.3225H150.853V37.8873Z" fill="#B15E53"/>
<path d="M150.853 44.538H135.51V45.9732H150.853V44.538Z" fill="#B15E53"/>
<path d="M96.8392 4.89694L41.5521 59.9212V75.5269V148.057H158.514V75.5269V65.1366L96.8392 4.89694Z" fill="#E17A59"/>
<g opacity="0.2">
<path opacity="0.2" d="M98.4361 1.13705L41.5521 57.8594V66.8953L98.4361 12.9626L158.514 69.9275V64.2472C160.03 64.2472 160.758 62.3874 159.646 61.3565L98.4361 1.13705Z" fill="#4E5774"/>
</g>
<path d="M163.062 148.057H37.0038V157.315H163.062V148.057Z" fill="#5D6A88"/>
<path d="M101.388 89.4952H56.329V126.892H101.388V89.4952Z" fill="#6D9D9D"/>
<path d="M146.446 87.8174H116.73V148.057H146.446V87.8174Z" fill="#806851"/>
<path d="M144.04 91.6583H119.136V144.944H144.04V91.6583Z" fill="#A08B71"/>
<path d="M147.295 89.4953H116.023C115.315 89.4953 114.729 88.9091 114.729 88.2016V85.7556C114.729 85.0481 115.315 84.4619 116.023 84.4619H147.295C148.002 84.4619 148.589 85.0481 148.589 85.7556V88.2016C148.609 88.9293 148.023 89.4953 147.295 89.4953Z" fill="#5D6A88"/>
<path d="M95.788 1.07643L34.8409 60.366C32.3949 62.7513 34.0727 66.8751 37.489 66.8751C38.4593 66.8751 39.4094 66.491 40.0967 65.8239L95.8083 12.8009C97.2839 11.4061 99.5682 11.4061 101.044 12.8009L156.755 65.8239C157.463 66.491 158.393 66.8751 159.363 66.8751C162.779 66.8751 164.457 62.7311 162.011 60.366L101.064 1.07643C99.6086 -0.35881 97.2637 -0.35881 95.788 1.07643Z" fill="#5D6A88"/>
<path d="M58.2494 72.7172H48.1825V77.9932H58.2494V72.7172Z" fill="#B15E53"/>
<path d="M140.543 64.2472H130.476V69.5232H140.543V64.2472Z" fill="#B15E53"/>
<path d="M68.3163 67.4613H58.2495V72.7373H68.3163V67.4613Z" fill="#B15E53"/>
<path d="M49.7391 121.131H41.5521V126.407H49.7391V121.131Z" fill="#B15E53"/>
<path d="M102.681 87.8174H55.0353V89.4952H102.681V87.8174Z" fill="#5D6A88"/>
<path d="M123.866 113.005C123.806 113.005 123.745 112.985 123.684 112.924C123.583 112.823 123.603 112.682 123.684 112.58L129.445 106.981C129.547 106.88 129.688 106.9 129.789 106.981C129.89 107.082 129.87 107.224 129.789 107.325L124.028 112.924C123.987 112.985 123.927 113.005 123.866 113.005Z" fill="#BFAA92"/>
<path d="M64.4351 104.515C64.3744 104.515 64.3138 104.495 64.2734 104.434C64.1723 104.333 64.1925 104.191 64.2734 104.09L70.0345 98.4908C70.1356 98.3897 70.2771 98.4099 70.3782 98.4908C70.4793 98.5919 70.4591 98.7334 70.3782 98.8344L64.617 104.434C64.5564 104.495 64.4957 104.515 64.4351 104.515Z" fill="#96C9C7"/>
<path d="M71.5102 105.465C71.4496 105.465 71.3889 105.445 71.3283 105.384C71.2272 105.283 71.2474 105.141 71.3283 105.04L77.0894 99.4409C77.1905 99.3399 77.332 99.3601 77.4331 99.4409C77.5342 99.542 77.514 99.6835 77.4331 99.7846L71.6719 105.384C71.6315 105.445 71.5709 105.465 71.5102 105.465Z" fill="#96C9C7"/>
<path d="M61.8072 110.215C61.7466 110.215 61.6859 110.195 61.6253 110.134C61.5444 110.033 61.5444 109.892 61.6455 109.791L79.8589 93.4978C79.96 93.4169 80.1015 93.4169 80.2025 93.518C80.2834 93.6191 80.2834 93.7606 80.1823 93.8616L61.9689 110.155C61.9083 110.195 61.8476 110.215 61.8072 110.215Z" fill="#96C9C7"/>
<path d="M133.61 115.006C133.549 115.006 133.488 114.986 133.428 114.925C133.327 114.824 133.347 114.683 133.428 114.582L139.189 108.982C139.29 108.881 139.431 108.901 139.533 108.982C139.634 109.083 139.613 109.225 139.533 109.326L133.771 114.925C133.731 114.966 133.67 115.006 133.61 115.006Z" fill="#BFAA92"/>
<path d="M121.38 121.333C121.319 121.333 121.258 121.313 121.218 121.273C121.117 121.172 121.117 121.03 121.218 120.929L141.008 101.301C141.109 101.2 141.251 101.2 141.352 101.301C141.453 101.402 141.453 101.543 141.352 101.644L121.562 121.273C121.501 121.313 121.44 121.333 121.38 121.333Z" fill="#BFAA92"/>
<path d="M68.8419 89.4952H67.3258V123.759H68.8419V89.4952Z" fill="#5D6A88"/>
<path d="M79.6163 89.4952H78.1002V123.759H79.6163V89.4952Z" fill="#5D6A88"/>
<path d="M90.4109 89.4952H88.8948V123.759H90.4109V89.4952Z" fill="#5D6A88"/>
<path d="M101.388 107.547H56.329V108.82H101.388V107.547Z" fill="#5D6A88"/>
<path d="M111.392 46.5768C112.437 40.3108 108.204 34.3846 101.937 33.3402C95.6714 32.2959 89.7452 36.5289 88.7008 42.7949C87.6565 49.061 91.8895 54.9873 98.1556 56.0316C104.422 57.076 110.348 52.8429 111.392 46.5768Z" fill="#6D9D9D"/>
<path d="M100.034 57.8599C92.7563 57.8599 86.8536 51.937 86.8536 44.6799C86.8536 37.4027 92.7765 31.5 100.034 31.5C107.311 31.5 113.213 37.4229 113.213 44.6799C113.213 51.9572 107.291 57.8599 100.034 57.8599ZM100.034 34.7343C94.5352 34.7343 90.0677 39.2018 90.0677 44.7002C90.0677 50.1985 94.5352 54.666 100.034 54.666C105.532 54.666 109.999 50.1985 109.999 44.7002C109.979 39.2018 105.512 34.7343 100.034 34.7343Z" fill="#5D6A88"/>
<path d="M101.509 33.7231H98.5372V55.6559H101.509V33.7231Z" fill="#5D6A88"/>
<path d="M110.991 46.1613V43.1898L89.058 43.1898V46.1613L110.991 46.1613Z" fill="#5D6A88"/>
<path d="M61.7061 127.074C59.6644 126.65 58.0068 124.729 57.9058 122.627C57.8855 122.263 57.9058 121.879 58.0675 121.556C58.3909 120.848 59.2601 120.505 60.0283 120.545C60.8167 120.585 61.5444 120.949 62.2317 121.293C60.5539 119.11 59.3006 116.179 60.4124 113.672C60.7156 113.005 61.2816 112.358 62.0093 112.338C62.7775 112.338 63.3435 113.045 63.768 113.692C64.8394 115.35 65.7693 117.088 66.5374 118.887C66.8204 116.987 67.4269 114.925 69.0441 113.935C69.2866 113.793 69.5494 113.672 69.8324 113.692C70.0952 113.733 70.3378 113.894 70.5197 114.076C71.9347 115.451 71.8135 117.695 71.5709 119.656C71.9954 118.362 73.7541 117.877 75.0074 118.463C76.2405 119.049 76.9682 120.403 77.231 121.738C77.4534 122.809 77.4331 123.981 76.9278 124.952C76.4224 125.922 75.3914 126.67 74.2796 126.589" fill="#B8D374"/>
<path d="M78.545 125.518C78.1811 125.599 77.9385 125.154 77.8374 124.77C77.514 123.335 77.5949 121.556 78.8482 120.788C79.5961 120.302 80.5866 120.343 81.4154 120.687C82.2442 121.01 82.9518 121.596 83.6391 122.162C83.5582 120.889 83.8816 119.514 84.8115 118.604C85.7414 117.695 87.3383 117.472 88.3086 118.301C89.1779 119.029 89.4002 120.383 90.3503 120.99C90.4312 120.141 90.1886 119.292 90.1279 118.422C90.0673 117.573 90.2492 116.603 90.9163 116.078C91.9068 115.309 93.4836 115.956 94.1102 117.048C94.7369 118.139 94.7167 119.474 94.656 120.747C94.9188 119.959 95.3231 119.049 96.1519 118.887C96.8594 118.766 97.5265 119.292 97.9308 119.878C99.083 121.576 98.8607 124.083 97.4052 125.538" fill="#B8D374"/>
<path d="M56.4705 123.779H101.246C102.802 123.779 104.076 125.053 104.076 126.609V131.481C104.076 133.038 102.802 134.311 101.246 134.311H56.4705C54.914 134.311 53.6405 133.038 53.6405 131.481V126.609C53.6405 125.053 54.914 123.779 56.4705 123.779Z" fill="#5D6A88"/>
</g>
<path d="M104.178 105.174V53.0098V52.7991L123.533 52.9987V105.174H104.178V105.174ZM104.589 104.759H123.116V53.4089L104.589 53.2204V104.759ZM104.378 53.2204L104.383 53.0098L104.378 53.2204Z" fill="black"/>
<path d="M113.797 63.3917V63.0813H123.328V63.3917H113.797Z" fill="black"/>
<path d="M111.224 68.8016V68.4524H123.461V68.8016H111.224Z" fill="black"/>
<path d="M118.804 68.3194L118.215 67.172C118.165 67.0833 118.198 66.978 118.287 66.9337C118.371 66.8893 118.476 66.9226 118.526 67.0057L118.787 67.5046V53.5918H118.793C118.793 53.4976 118.865 53.42 118.965 53.42C119.06 53.42 119.143 53.4976 119.143 53.5918V68.2418C119.143 68.3194 119.088 68.3914 119.01 68.4136C118.999 68.4192 118.982 68.4192 118.971 68.4192C118.899 68.4192 118.837 68.3804 118.804 68.3194Z" fill="black"/>
<path d="M118.887 68.4025C118.799 68.3581 118.76 68.2528 118.804 68.1641L119.304 67.1387C119.343 67.05 119.454 67.0112 119.538 67.0555C119.627 67.0999 119.665 67.2052 119.621 67.2939L119.121 68.3193C119.093 68.3803 119.032 68.4191 118.965 68.4191C118.937 68.4191 118.91 68.4136 118.887 68.4025Z" fill="black"/>
<path d="M118.287 54.5396C118.198 54.4897 118.165 54.3899 118.209 54.3013L118.804 53.1428C118.849 53.0541 118.954 53.0208 119.043 53.0652C119.132 53.1095 119.165 53.2148 119.121 53.3035L118.526 54.462C118.493 54.523 118.432 54.5562 118.365 54.5562C118.343 54.5562 118.315 54.5507 118.287 54.5396Z" fill="black"/>
<path d="M119.476 54.4232L118.815 53.3091C118.765 53.2259 118.793 53.1151 118.876 53.0707C118.96 53.0208 119.071 53.0485 119.121 53.1317L119.788 54.2458C119.838 54.329 119.81 54.4398 119.727 54.4897C119.699 54.5063 119.665 54.5174 119.638 54.5174C119.571 54.5119 119.51 54.4786 119.476 54.4232Z" fill="black"/>
<path d="M110.652 50.1995L110.374 50.3437L110.335 50.1829L110.674 50H110.852V51.552H110.646V50.1995H110.652Z" fill="black"/>
<path d="M112.347 50.183H111.752L111.691 50.5821C111.73 50.5765 111.763 50.5765 111.819 50.5765C111.941 50.5765 112.058 50.5987 112.152 50.6597C112.274 50.7262 112.375 50.8647 112.375 51.0588C112.375 51.3636 112.136 51.5909 111.797 51.5909C111.624 51.5909 111.485 51.541 111.408 51.4966L111.463 51.3359C111.53 51.3747 111.652 51.4246 111.797 51.4246C111.991 51.4246 112.163 51.2916 112.163 51.0865C112.163 50.8869 112.03 50.7483 111.719 50.7483C111.63 50.7483 111.558 50.7539 111.502 50.7594L111.602 50.0111H112.347V50.183Z" fill="black"/>
<path d="M122.622 50.4157C122.577 50.4157 122.522 50.4212 122.466 50.4268C122.133 50.4822 121.961 50.7206 121.922 50.9755H121.927C121.999 50.8758 122.133 50.7926 122.305 50.7926C122.583 50.7926 122.777 50.9922 122.777 51.297C122.777 51.5853 122.583 51.8458 122.255 51.8458C121.922 51.8458 121.705 51.5853 121.705 51.1862C121.705 50.8813 121.816 50.6374 121.966 50.4878C122.094 50.3603 122.266 50.2827 122.466 50.255C122.527 50.2439 122.577 50.2439 122.616 50.2439V50.4157H122.622ZM122.566 51.3137C122.566 51.0919 122.438 50.9589 122.244 50.9589C122.116 50.9589 121.999 51.0365 121.938 51.1474C121.927 51.1695 121.916 51.1973 121.916 51.2361C121.922 51.491 122.038 51.685 122.261 51.685C122.444 51.6906 122.566 51.5354 122.566 51.3137Z" fill="black"/>
<path d="M124 51.031C124 51.5631 123.8 51.8513 123.455 51.8513C123.15 51.8513 122.944 51.5686 122.939 51.0531C122.939 50.5266 123.166 50.2439 123.483 50.2439C123.806 50.2439 124 50.5321 124 51.031ZM123.15 51.0531C123.15 51.4578 123.272 51.685 123.467 51.685C123.678 51.685 123.783 51.4356 123.783 51.0365C123.783 50.654 123.689 50.4046 123.467 50.4046C123.283 50.4046 123.15 50.6319 123.15 51.0531Z" fill="black"/>
<path d="M114.392 50.3394L114.114 50.4835L114.075 50.3228L114.414 50.1399H114.592V51.6919H114.386V50.3394H114.392Z" fill="black"/>
<path d="M116.198 50.9035C116.198 51.4356 115.998 51.7239 115.653 51.7239C115.348 51.7239 115.142 51.4412 115.136 50.9257C115.136 50.3991 115.364 50.1164 115.681 50.1164C116.009 50.1164 116.198 50.4047 116.198 50.9035ZM115.348 50.9257C115.348 51.3303 115.47 51.5576 115.664 51.5576C115.876 51.5576 115.981 51.3082 115.981 50.9091C115.981 50.5266 115.887 50.2772 115.664 50.2772C115.487 50.2772 115.348 50.5044 115.348 50.9257Z" fill="black"/>
<path d="M117.987 73.5243V73.3968L118.154 73.236C118.548 72.8591 118.732 72.6595 118.732 72.4212C118.732 72.2605 118.66 72.1163 118.426 72.1163C118.287 72.1163 118.165 72.1884 118.093 72.2494L118.026 72.0997C118.132 72.011 118.287 71.939 118.465 71.939C118.799 71.939 118.943 72.1662 118.943 72.3935C118.943 72.6762 118.732 72.909 118.41 73.2249L118.287 73.3413V73.3469H118.987V73.5243H117.987V73.5243Z" fill="black"/>
<path d="M120.249 72.7316C120.249 73.2637 120.049 73.552 119.704 73.552C119.399 73.552 119.193 73.2693 119.188 72.7538C119.188 72.2272 119.415 71.9445 119.732 71.9445C120.06 71.9445 120.249 72.2328 120.249 72.7316ZM119.404 72.7538C119.404 73.1584 119.527 73.3857 119.721 73.3857C119.932 73.3857 120.038 73.1363 120.038 72.7372C120.038 72.3547 119.943 72.1053 119.721 72.1053C119.538 72.1053 119.404 72.3325 119.404 72.7538Z" fill="black"/>
<path d="M114.036 87.1986H113.442L113.38 87.5977C113.419 87.5921 113.453 87.5921 113.508 87.5921C113.63 87.5921 113.747 87.6143 113.842 87.6753C113.964 87.7418 114.064 87.8804 114.064 88.0744C114.064 88.3792 113.825 88.6065 113.486 88.6065C113.314 88.6065 113.175 88.5566 113.097 88.5123L113.153 88.3515C113.219 88.3903 113.341 88.4347 113.486 88.4347C113.68 88.4347 113.853 88.3016 113.853 88.0965C113.853 87.897 113.719 87.7584 113.408 87.7584C113.319 87.7584 113.247 87.764 113.191 87.7695L113.291 87.0212H114.036V87.1986Z" fill="black"/>
<path d="M104.311 105.341C104.128 105.302 104 105.147 104 104.964C104 96.3889 104.3 63.2698 104.3 63.2698C104.395 61.9118 107.929 54.9443 111.691 53.2039L112.047 53.226C113.936 54.379 114.486 54.767 114.497 54.7725C114.581 54.8335 114.636 54.9222 114.653 55.0219C114.67 55.1273 114.647 55.227 114.592 55.3102C114.597 55.3157 111.847 59.3066 111.897 60.6258C111.897 60.7256 111.913 60.7866 111.93 60.8309C112.358 61.9118 114.181 62.9428 114.192 62.9428C114.281 62.9927 114.347 63.0758 114.375 63.1701C114.403 63.2643 114.386 63.3751 114.347 63.4638L111.663 68.4192C112.536 69.1675 115.225 71.9999 117.381 79.8709C119.954 89.2108 123.261 101.705 123.261 101.705C123.289 101.804 123.272 101.91 123.222 101.998C123.172 102.087 123.089 102.148 122.989 102.176C122.972 102.181 110.791 105.446 105.639 105.457C105.123 105.446 104.672 105.413 104.311 105.341ZM105.634 104.681C110.046 104.687 120.332 102.07 122.416 101.522C121.849 99.3931 118.949 88.4569 116.637 80.0649C115.364 75.431 113.919 72.6097 112.808 70.9523C111.697 69.295 110.957 68.8405 110.957 68.8349C110.785 68.7241 110.73 68.5079 110.83 68.3305L113.492 63.4139C112.908 63.0537 111.708 62.2278 111.219 61.1303C111.146 60.964 111.124 60.7866 111.124 60.6258C111.169 59.0517 113.086 56.1693 113.742 55.1938C113.425 54.9887 112.83 54.6118 111.808 53.9854C108.585 55.4986 104.972 62.588 105.061 63.2754H104.678L105.061 63.2809C105.061 63.3197 104.772 95.5907 104.767 104.642C105.017 104.664 105.306 104.681 105.634 104.681Z" fill="black"/>
<path d="M42.3605 95.7969C42.2698 87.2682 42.433 82.4791 42.0944 59.7338L42.1125 59.583C42.1065 59.571 44.876 49.5826 44.8579 46.9106C44.876 42.6764 42.1186 38.8886 42.1065 38.8886L42.5358 38.5749L42.8321 39.0152L42.5358 38.5749L42.1065 38.8886C42.0218 38.774 41.9795 38.6292 42.0097 38.4845C42.0279 38.3457 42.1125 38.213 42.2335 38.1346C44.2048 36.9766 44.3802 29.3707 44.4769 28.4479C44.8639 27.6939 45.1784 27.8929 45.7952 27.5612C46.3817 27.3501 47.1316 27.1149 47.8814 26.8977C49.3811 26.4635 50.8626 26.0895 50.8626 26.0835C51.0742 26.0292 51.304 26.1136 51.431 26.2946C51.4492 26.2946 55.1741 31.5119 58.4819 31.9281C58.7479 31.9643 58.9475 32.1995 58.9354 32.4709C58.8507 34.8595 58.8144 37.0972 58.8144 39.0213C58.8144 42.4593 58.9112 44.8961 58.9293 45.3786L75.4256 90.4589C75.4801 90.6036 75.468 90.7665 75.3833 90.9052C75.3047 91.0379 75.1656 91.1344 75.0084 91.1646C74.9661 91.1646 44.3802 96.3035 42.8805 96.3156C42.5963 96.3216 42.3605 96.0864 42.3605 95.7969ZM43.4187 95.2058C47.2948 94.7112 70.1163 90.9113 74.2102 90.2236L57.9134 45.6802L57.8832 45.5234C57.8772 45.5113 57.7562 42.8996 57.7562 39.0333C57.7562 37.2178 57.7804 35.1188 57.859 32.8871C54.5331 32.0608 51.6124 28.3152 50.79 27.2174C49.6774 27.519 46.1943 28.4599 45.4928 28.8278C45.3477 30.0462 45.4565 36.3553 43.2373 38.6654C43.969 39.7813 45.9161 43.0926 45.9282 46.9106C45.9101 49.8118 43.4127 58.8412 43.1587 59.7942C43.4852 81.9543 43.3401 87.0571 43.4187 95.2058Z" fill="black"/>
<path d="M42.0762 96.3457V26.0653V25.7879L75.6735 26.0533V96.3457H42.0762ZM42.6386 95.7787H75.1112V26.6142L42.6386 26.3488V95.7787ZM42.3604 26.3488V26.0653V26.3488Z" fill="black"/>
<path d="M45.5775 46.2893V45.7344H68.4292V46.2893H45.5775Z" fill="black"/>
<path d="M68.2297 45.9514L67.4315 44.5823C67.3649 44.4737 67.4012 44.341 67.5101 44.2747C67.6129 44.2143 67.7519 44.2445 67.8124 44.3531L68.1994 45.0105V28.4236H68.2055C68.2055 28.2969 68.2962 28.2004 68.4292 28.2004C68.5502 28.2004 68.653 28.3029 68.653 28.4236V45.8368C68.653 45.9394 68.5804 46.0238 68.4836 46.054C68.4655 46.06 68.4474 46.06 68.4292 46.06C68.3446 46.06 68.272 46.0178 68.2297 45.9514Z" fill="black"/>
<path d="M68.3204 46.0359C68.2115 45.9756 68.1692 45.8369 68.2296 45.7283L68.9009 44.5039C68.9553 44.4014 69.0944 44.3531 69.2032 44.4195C69.306 44.4738 69.3544 44.6125 69.2939 44.7211L68.6227 45.9455C68.5804 46.0179 68.5018 46.0601 68.4232 46.0601C68.3869 46.0601 68.3506 46.054 68.3204 46.0359Z" fill="black"/>
<path d="M67.5101 29.5465C67.4012 29.4862 67.3649 29.3535 67.4315 29.2389L68.2357 27.8637C68.3022 27.7612 68.4353 27.725 68.5441 27.7853C68.6469 27.8516 68.6892 27.9843 68.6227 28.0929L67.8185 29.4621C67.7761 29.5344 67.6975 29.5767 67.6189 29.5767C67.5826 29.5767 67.5464 29.5706 67.5101 29.5465Z" fill="black"/>
<path d="M69.1306 29.4249L68.2417 28.1039C68.1692 28.0014 68.1994 27.8627 68.3022 27.7903C68.405 27.724 68.5441 27.7481 68.6167 27.8567L69.5056 29.1776C69.5781 29.2801 69.5479 29.4188 69.4451 29.4912C69.4028 29.5153 69.3665 29.5334 69.3181 29.5334C69.2455 29.5274 69.173 29.4912 69.1306 29.4249Z" fill="black"/>
<path d="M42.1851 28.2065C42.1851 28.0859 42.2879 27.9834 42.4089 27.9834H44.7793L44.7853 26.0653C44.7853 25.9447 44.8821 25.8421 45.0091 25.8421C45.13 25.8421 45.2328 25.9447 45.2328 26.0653V28.2005C45.2328 28.2608 45.2086 28.3151 45.1663 28.3573C45.124 28.3995 45.0635 28.4237 45.0091 28.4237H42.4089V28.4297C42.2819 28.4297 42.1851 28.3272 42.1851 28.2065Z" fill="black"/>
<path d="M42.6265 60.0052C42.4753 60.0052 42.3484 59.8785 42.3484 59.7277C42.3484 59.5649 42.4753 59.4442 42.6265 59.4442H63.6097C63.7669 59.4442 63.8879 59.5649 63.8879 59.7277C63.8879 59.8785 63.7669 60.0052 63.6097 60.0052H42.6265Z" fill="black"/>
<path d="M50.796 22.2955H50.79L50.4272 22.4885L50.3727 22.2774L50.8263 22.0362H51.0682V24.111H50.796V22.2955V22.2955Z" fill="black"/>
<path d="M53.0757 22.2714H52.2836L52.205 22.8082C52.2533 22.8022 52.2957 22.7962 52.3743 22.7962C52.5376 22.7962 52.6948 22.8263 52.8218 22.9108C52.985 23.0012 53.1181 23.1822 53.1181 23.4415C53.1181 23.8457 52.7915 24.1472 52.3441 24.1472C52.1143 24.1472 51.9268 24.0869 51.824 24.0206L51.8966 23.8095C51.9812 23.8577 52.1505 23.9241 52.3441 23.9241C52.6041 23.9241 52.8339 23.7492 52.8339 23.4777C52.8339 23.2063 52.6524 23.0193 52.2352 23.0193C52.1143 23.0193 52.0236 23.0314 51.9449 23.0374L52.078 22.0422H53.0697V22.2714H53.0757Z" fill="black"/>
<path d="M75.2986 22.591C75.2382 22.591 75.1656 22.597 75.087 22.6091C74.6395 22.6815 74.4097 23.0011 74.3614 23.3449H74.3674C74.4702 23.2123 74.6456 23.1037 74.8754 23.1037C75.2442 23.1037 75.5042 23.3751 75.5042 23.7732C75.5042 24.1592 75.2442 24.5091 74.8088 24.5091C74.3674 24.5091 74.0771 24.1652 74.0771 23.6224C74.0771 23.2123 74.2223 22.8926 74.4279 22.6875C74.6032 22.5186 74.833 22.4161 75.093 22.3799C75.1777 22.3678 75.2442 22.3678 75.2986 22.3678V22.591ZM75.22 23.7913C75.22 23.4957 75.0507 23.3148 74.7907 23.3148C74.6214 23.3148 74.4642 23.4173 74.3855 23.5681C74.3674 23.5983 74.3553 23.6405 74.3553 23.6888C74.3614 24.0326 74.5186 24.2859 74.8149 24.2859C75.0568 24.2859 75.22 24.0868 75.22 23.7913Z" fill="black"/>
<path d="M77.143 23.4054C77.143 24.1111 76.877 24.5032 76.4174 24.5032C76.0122 24.5032 75.7341 24.1232 75.728 23.4356C75.728 22.7359 76.0304 22.3559 76.4537 22.3559C76.8891 22.3559 77.143 22.748 77.143 23.4054ZM76.0122 23.4416C76.0122 23.9844 76.1755 24.292 76.4355 24.292C76.7197 24.292 76.8588 23.9543 76.8588 23.4235C76.8588 22.9108 76.7318 22.5791 76.4355 22.5791C76.1936 22.5791 76.0122 22.8746 76.0122 23.4416Z" fill="black"/>
<path d="M45.6077 39.2866C45.6863 39.3349 45.8738 39.4133 46.0673 39.4133C46.4241 39.4133 46.539 39.1901 46.539 39.0092C46.539 38.7197 46.2729 38.593 46.0008 38.593H45.8436V38.3819H46.0008C46.2064 38.3819 46.4664 38.2733 46.4664 38.026C46.4664 37.8632 46.3636 37.7124 46.1036 37.7124C45.9403 37.7124 45.777 37.7848 45.6863 37.8511L45.6077 37.646C45.7166 37.5676 45.9343 37.4832 46.158 37.4832C46.5692 37.4832 46.7567 37.7244 46.7567 37.9778C46.7567 38.1949 46.6236 38.3759 46.3696 38.4724V38.4784C46.6236 38.5267 46.8292 38.7197 46.8353 39.0092C46.8353 39.3409 46.5692 39.6304 46.0733 39.6304C45.8375 39.6304 45.638 39.5581 45.5352 39.4917L45.6077 39.2866Z" fill="black"/>
<path d="M48.5768 38.5448C48.5768 39.2505 48.3107 39.6425 47.8512 39.6425C47.446 39.6425 47.1679 39.2625 47.1618 38.5749C47.1618 37.8753 47.4642 37.4953 47.8874 37.4953C48.3228 37.4953 48.5768 37.8873 48.5768 38.5448ZM47.446 38.5749C47.446 39.1178 47.6093 39.4254 47.8693 39.4254C48.1535 39.4254 48.2926 39.0876 48.2926 38.5568C48.2926 38.0441 48.1656 37.7124 47.8693 37.7124C47.6274 37.7124 47.446 38.014 47.446 38.5749Z" fill="black"/>
<path d="M49.369 50.0847H49.3629L49.0001 50.2777L48.9457 50.0666L49.3992 49.8254H49.6411V51.9003H49.369V50.0847V50.0847Z" fill="black"/>
<path d="M51.6426 50.0591H50.8505L50.7719 50.5899C50.8202 50.5838 50.8626 50.5778 50.9412 50.5778C51.1044 50.5778 51.2617 50.608 51.3887 50.6864C51.5519 50.7769 51.685 50.9578 51.685 51.2172C51.685 51.6213 51.3584 51.9229 50.9109 51.9229C50.6812 51.9229 50.4937 51.8625 50.3909 51.7962L50.4635 51.5851C50.5481 51.6333 50.7174 51.6997 50.9109 51.6997C51.171 51.6997 51.4008 51.5248 51.4008 51.2473C51.4008 50.9759 51.2193 50.7889 50.8021 50.7889C50.6812 50.7889 50.5905 50.801 50.5118 50.807L50.6449 49.8118H51.6366V50.0591H51.6426Z" fill="black"/>
<path d="M44.1867 22.2962H44.1806L43.8178 22.4953L43.7634 22.2781L44.2169 22.0369H44.4588V24.1117H44.1867V22.2962Z" fill="black"/>
<path d="M46.6115 23.0495C46.6115 23.7552 46.3454 24.1473 45.8919 24.1473C45.4868 24.1473 45.2025 23.7673 45.1965 23.0797C45.1905 22.38 45.4988 22 45.9221 22C46.3575 22 46.6115 22.3921 46.6115 23.0495ZM45.4807 23.0797C45.4807 23.6225 45.644 23.9301 45.904 23.9301C46.1882 23.9301 46.3273 23.5923 46.3273 23.0616C46.3273 22.5489 46.2003 22.2171 45.904 22.2171C45.6561 22.2171 45.4807 22.5187 45.4807 23.0797Z" fill="black"/>
<path d="M55.3555 72.1409H54.5634L54.4848 72.6777C54.5271 72.6656 54.5755 72.6656 54.648 72.6656C54.8113 72.6656 54.9685 72.6958 55.0955 72.7742C55.2588 72.8647 55.3918 73.0456 55.3918 73.305C55.3918 73.7091 55.0653 74.0107 54.6178 74.0107C54.394 74.0107 54.2005 73.9504 54.1038 73.884L54.1764 73.6729C54.261 73.7212 54.4303 73.7875 54.6238 73.7875C54.8899 73.7875 55.1197 73.6126 55.1136 73.3351C55.1136 73.0637 54.9322 72.8767 54.515 72.8767C54.394 72.8767 54.3033 72.8888 54.2247 72.8948L54.3578 71.8996H55.3495V72.1409H55.3555Z" fill="black"/>
<circle cx="81.8792" cy="82.5772" r="26.5772" fill="#FED549"/>
<g clip-path="url(#clip0)">
<path d="M89.5371 91.2273C89.5371 91.2273 87.4642 92.2384 87.9751 94.9939C88.4861 97.7453 88.7146 98.1183 88.1413 99.1915C87.568 100.269 86.8909 104.856 87.406 105.726C87.9211 106.596 93.7953 101.906 94.6095 97.9691C95.4238 94.0326 94.0944 92.284 93.6249 91.6293C93.1555 90.9746 91.3692 90.2991 89.5371 91.2273Z" fill="#172D3C"/>
<path d="M90.3223 154.53H89.8528V152.902C89.8528 152.902 89.0054 153.569 88.3532 154.365C88.1704 154.584 87.0944 154.733 85.8855 154.679C84.6725 154.626 84.6932 154.294 84.7223 153.859C84.768 153.167 86.06 152.956 86.4588 152.848C86.8576 152.74 87.7591 151.186 88.0499 150.809C88.4445 150.295 88.6564 149.798 88.6564 149.798C88.6564 149.798 88.8807 148.878 90.0024 149.798C91.124 150.718 90.7959 152.483 90.6712 152.649C90.5383 152.811 90.3223 154.53 90.3223 154.53Z" fill="#1D3341"/>
<path d="M87.9543 152.848C87.5389 153.117 86.4547 152.848 86.4547 152.848C86.7621 152.45 88.6523 149.802 88.6523 149.802C89.7988 149.135 90.2558 150.055 90.2558 150.055C89.7822 150.196 88.3698 152.579 87.9543 152.848Z" fill="#E2A98A"/>
<path d="M82.0262 118.269C82.0262 118.269 81.4571 118.779 81.0541 118.609C80.7135 118.464 80.1651 118.526 79.9948 118.542C79.7704 118.567 79.0518 118.385 79.0767 118.667C79.1058 118.948 80.2482 119.023 80.485 119.089C80.7218 119.152 79.8245 119.781 79.7538 120.026C79.6791 120.27 80.809 121.692 81.374 121.19C81.939 120.689 82.209 119.777 82.3295 119.711C82.4458 119.64 82.7574 119.363 82.7574 119.363L82.0262 118.269Z" fill="#E2A98A"/>
<path d="M79.8577 119.877C79.8577 119.877 78.2292 121.53 78.2126 121.733C78.196 121.932 78.2915 122.015 78.4494 121.87C78.6072 121.721 80.0695 120.316 80.0695 120.316C80.0695 120.316 78.4702 122.595 78.4245 122.757C78.3954 122.852 78.5699 123.022 78.6613 122.951C78.7526 122.881 80.4684 120.71 80.4684 120.71C80.4684 120.71 78.9811 122.839 78.9811 122.989C78.9811 123.117 79.1805 123.233 79.301 123.084C79.4215 122.935 80.917 121.033 80.917 121.033C80.917 121.033 79.9325 122.653 80.0031 122.777C80.0488 122.852 80.19 123.009 80.431 122.583C80.6719 122.156 81.3449 121.211 81.3449 121.211L79.8577 119.877Z" fill="#E2A98A"/>
<path d="M96.4125 154.597H96.1217V153.644C96.1217 153.644 95.4279 154.576 94.9502 154.999C94.6594 155.255 94.2979 155.442 93.0143 155.405C91.7306 155.367 91.8303 154.911 91.822 154.617C91.8095 154.07 93.0143 153.461 93.0143 153.461C93.5003 153.03 94.7134 151.236 94.7134 151.236C94.7134 151.236 95.4902 151.029 96.1009 151.522C96.7116 152.015 96.5205 153.121 96.5039 153.411C96.4831 153.697 96.4125 154.597 96.4125 154.597Z" fill="#1D3341"/>
<path d="M95.5276 116.603C95.5276 116.603 97.0564 118.588 97.4718 120.942C97.8872 123.295 97.2267 131.193 97.2433 132.357C97.2599 133.522 98.3442 136.414 98.1282 138.606C97.9122 140.798 97.0564 151.7 97.0564 151.7L94.7134 151.236C94.7134 151.236 94.8505 140.119 94.7134 139.199C94.5763 138.279 94.3062 134.927 94.2522 134.549C94.1982 134.172 90.8083 124.228 90.8083 122.529C90.8083 120.83 91.8386 113.835 95.5276 116.603Z" fill="#243B52"/>
<path d="M87.8422 117.378C87.8422 117.378 85.3288 126.946 85.0297 128.268C84.7306 129.594 84.2986 130.688 84.2986 131.247C84.2986 132.552 84.7846 134.649 84.7846 134.649L87.9751 149.873H91.016C91.016 149.873 89.3211 140.74 89.2754 138.954C89.2297 137.164 87.8505 134.624 88.1205 133.866C88.3905 133.107 92.4866 124.373 92.4866 124.373C92.4866 124.373 95.5899 114.602 87.8422 117.378Z" fill="#243B52"/>
<path d="M93.0143 153.461L94.7134 151.236L96.1009 151.522C96.1009 151.522 95.6979 152.496 95.054 153.271C94.5555 153.859 93.0143 153.461 93.0143 153.461Z" fill="#E2A98A"/>
<path d="M87.5306 102.208C87.5306 102.208 86.6915 102.825 86.4547 103.944C86.2179 105.063 86.276 106.584 86.33 107.073C86.384 107.562 86.06 112.58 85.9811 112.737C85.9022 112.895 84.9134 114.051 84.2571 114.817C83.2476 116.002 81.266 118.443 81.266 118.443L82.7283 119.732C82.7283 119.732 86.5585 115.31 87.5763 114.299C88.8226 113.065 89.587 106.741 89.587 106.741C89.587 106.741 90.3306 102.308 87.5306 102.208Z" fill="#325170"/>
<path d="M90.6879 100.397C90.6879 100.397 89.346 101.031 88.8808 101.122C88.4155 101.214 86.6084 103.559 86.2885 104.412C85.9728 105.266 86.2885 106.551 86.9407 108.055C87.5929 109.559 86.9781 110.064 87.2772 111.569C87.5763 113.073 87.4808 118.708 87.4226 119.545C87.3686 120.382 96.1466 121.65 97.8789 120.125C97.8789 120.125 96.7074 115.049 95.3157 113.599C95.0166 113.284 95.0457 111.196 95.2534 110.678C95.457 110.156 97.7709 106.273 97.7709 106.273C97.7709 106.273 97.9412 102.332 96.9318 101.549C96.0552 100.87 93.6665 100.629 93.2386 100.48C92.8107 100.331 91.5644 100.265 90.6879 100.397Z" fill="#F4BF68"/>
<path d="M90.0481 98.8517C90.0481 98.8517 90.0896 99.2205 90.1353 99.7177C90.152 99.9166 90.1727 100.132 90.1893 100.356C90.2433 101.023 90.2849 101.74 90.26 102.109C90.26 102.109 91.6558 103.501 93.2386 100.48C93.2386 100.48 92.5697 99.2329 93.0724 97.5382C93.5792 95.8434 90.0481 98.8517 90.0481 98.8517Z" fill="#E2A98A"/>
<path d="M86.1431 108.61C86.1431 108.61 85.8066 106.385 86.1639 105.03C86.1639 105.03 86.1639 106.194 86.8036 107.848L86.1431 108.61Z" fill="#223C57"/>
<path d="M94.3104 100.696C94.3104 100.696 93.3508 103.522 90.717 103.314C88.0832 103.107 89.4665 100.928 89.4665 100.928C89.4665 100.928 90.1229 100.551 90.3057 100.517C90.4885 100.48 93.2178 100.447 93.2178 100.447L94.3104 100.696Z" fill="#E2A98A"/>
<path d="M89.4707 100.928C89.4707 100.928 88.0915 104.732 88.0915 108.614C88.0915 112.493 87.9793 118.812 87.4974 120.809C87.0155 122.806 85.6446 128.976 85.6446 128.976L84.5686 128.421C84.5686 128.421 87.1526 118.571 87.3478 117.863C87.5431 117.154 87.1983 109.65 87.0155 109.02C86.8286 108.39 86.0434 105.598 86.1639 104.819C86.3176 103.841 87.2357 102.395 88.7187 101.147L89.4707 100.928Z" fill="#325170"/>
<path d="M93.7911 100.576C93.7911 100.576 92.9353 103.314 92.4991 106.82C92.0629 110.326 93.8327 126.606 95.0166 130.302L99.6113 129.565C99.6113 129.565 98.6225 118.058 97.2807 115.965C95.9389 113.873 95.511 112.02 96.9608 107.649C98.4107 103.277 96.3252 101.114 96.3252 101.114C96.3252 101.114 94.1941 100.621 93.7911 100.576Z" fill="#325170"/>
<path d="M91.5976 118.58C91.5976 118.58 91.851 118.58 91.9632 118.526C91.9632 118.526 92.1585 118.414 92.2997 118.344C92.3454 118.323 92.3869 118.302 92.4119 118.294C92.524 118.257 92.7858 118.203 93.0309 118.033C93.276 117.863 94.1484 116.856 94.1484 116.856L93.7371 116.23L93.4338 115.592C93.4338 115.592 91.6018 115.708 91.3567 115.841C91.3318 115.853 91.311 115.866 91.2902 115.882C91.0908 116.015 90.9994 116.197 90.9039 116.276C90.8706 116.305 90.5383 116.628 90.5508 116.765C90.5674 116.955 90.6546 117.08 90.7709 117.142C90.7709 117.142 90.8166 117.515 91.0036 117.689C91.0036 117.689 91.0368 118.033 91.3276 118.182C91.3193 118.182 91.3941 118.53 91.5976 118.58Z" fill="#E2A98A"/>
<path d="M95.3697 101.122C95.3697 101.122 97.0605 100.638 98.0285 102.498C98.9964 104.359 98.9922 105.15 99.121 106.058C99.2415 106.915 99.794 109.256 99.8522 109.497C99.9062 109.737 101.157 112.621 100.583 113.628C100.006 114.639 94.1525 117.623 94.1899 117.842C94.2273 118.066 93.1763 115.588 93.1763 115.588C93.1763 115.588 95.5442 114.27 95.9347 113.864C96.5662 113.205 97.8955 112.497 97.6213 111.681C97.3015 110.719 96.3377 107.483 96.1133 107.006C95.8932 106.534 93.9448 101.727 95.3697 101.122Z" fill="#325170"/>
<path d="M89.8404 91.5298C89.8404 91.5298 86.8285 92.4746 88.4653 97.6583C90.1021 102.842 94.2148 97.0575 93.7828 93.9C93.3507 90.7425 89.8404 91.5298 89.8404 91.5298Z" fill="#E2AA8B"/>
<path d="M88.1537 94.5547C88.1537 94.5547 89.6493 96.0174 92.1543 96.2039C92.1543 96.2039 93.1181 97.331 93.1887 97.7702C93.1887 97.7702 95.4237 93.9704 92.6777 91.6956C89.9318 89.4165 87.1443 93.6182 88.1537 94.5547Z" fill="#172D3C"/>
<path d="M92.1252 96.3074C92.146 95.9303 92.3787 95.0726 92.9395 95.3129C93.5003 95.5533 92.9063 97.3019 92.5324 97.1942C92.5324 97.19 92.0796 97.1983 92.1252 96.3074Z" fill="#E2AA8B"/>
<path d="M90.1353 99.7177C90.152 99.9166 90.1727 100.132 90.1893 100.356C90.1893 100.356 91.5187 100.277 92.4077 98.3047C92.3496 98.3918 91.3733 99.8172 90.1353 99.7177Z" fill="#9F7A64"/>
<path d="M100.741 154.787H83.0232V159.727H100.741V154.787Z" fill="#D6D0CA"/>
<path d="M87.298 103.252C87.3271 103.165 87.3603 103.082 87.3935 103.008L87.5389 103.07C87.5057 103.14 87.4766 103.219 87.4475 103.302L87.298 103.252Z" fill="white"/>
<path d="M86.0683 123.333C86.0932 123.183 86.1181 123.013 86.1431 122.823L86.2968 122.844C86.2677 123.034 86.2428 123.208 86.222 123.357L86.0683 123.333ZM86.1971 122.462C86.2179 122.301 86.2428 122.131 86.2719 121.953L86.4256 121.973C86.4006 122.152 86.3757 122.321 86.3508 122.487L86.1971 122.462ZM86.3176 121.596C86.3425 121.431 86.3632 121.261 86.3882 121.087L86.5419 121.107C86.517 121.281 86.492 121.451 86.4713 121.621L86.3176 121.596ZM86.4422 120.726C86.463 120.556 86.4879 120.391 86.5128 120.216L86.6665 120.237C86.6416 120.411 86.6208 120.581 86.5959 120.751L86.4422 120.726ZM86.5585 119.856C86.5793 119.686 86.6042 119.516 86.625 119.342L86.7787 119.363C86.7579 119.533 86.733 119.707 86.7081 119.877L86.5585 119.856ZM86.6707 118.986C86.6956 118.816 86.7164 118.642 86.7371 118.476L86.8908 118.497C86.8701 118.667 86.8493 118.841 86.8244 119.011L86.6707 118.986ZM86.7828 118.116C86.8036 117.942 86.8244 117.772 86.8451 117.602L86.9988 117.618C86.9781 117.788 86.9573 117.958 86.9365 118.132L86.7828 118.116ZM86.8908 117.245C86.9116 117.067 86.9324 116.897 86.949 116.732L87.1069 116.748C87.0861 116.914 87.0695 117.084 87.0487 117.262L86.8908 117.245ZM86.9864 116.375C87.0072 116.193 87.0238 116.019 87.0362 115.861L87.1899 115.878C87.1733 116.036 87.1567 116.21 87.1401 116.392L86.9864 116.375ZM87.0695 115.505C87.0861 115.298 87.0944 115.128 87.0985 114.991L87.2523 114.995C87.2481 115.132 87.2398 115.31 87.2232 115.518L87.0695 115.505ZM87.0944 114.117L87.2523 114.113C87.2564 114.295 87.2606 114.469 87.2606 114.631H87.1027C87.1027 114.473 87.0986 114.299 87.0944 114.117ZM87.0612 113.243L87.219 113.234C87.2273 113.413 87.2315 113.587 87.2398 113.748L87.0819 113.752C87.0778 113.591 87.0695 113.417 87.0612 113.243ZM87.0196 112.368L87.1775 112.36C87.1858 112.534 87.1983 112.704 87.2066 112.878L87.0487 112.886C87.0362 112.712 87.0279 112.538 87.0196 112.368ZM86.9698 111.49L87.1276 111.482C87.1359 111.652 87.1484 111.826 87.1567 112L86.9988 112.008C86.9905 111.834 86.9781 111.664 86.9698 111.49ZM86.9199 110.616L87.0736 110.607C87.0819 110.773 87.0944 110.947 87.1069 111.121L86.949 111.129C86.9365 110.955 86.9282 110.781 86.9199 110.616ZM86.8701 109.737L87.0279 109.729C87.0362 109.882 87.0445 110.056 87.057 110.247L86.8991 110.255C86.8867 110.069 86.8784 109.895 86.8701 109.737ZM86.8493 109.07C86.8493 109.016 86.8493 108.946 86.8493 108.859L87.0072 108.855C87.0072 108.946 87.0072 109.016 87.0072 109.074C87.0072 109.14 87.0072 109.244 87.0113 109.372L86.8535 109.377C86.8493 109.248 86.8493 109.145 86.8493 109.07ZM86.841 107.98H86.9988C86.9988 108.167 87.003 108.345 87.003 108.494L86.8451 108.498C86.8451 108.345 86.8451 108.171 86.841 107.98ZM86.8451 107.106L87.003 107.11C86.9988 107.288 86.9988 107.462 86.9988 107.624H86.841C86.841 107.458 86.8451 107.284 86.8451 107.106ZM86.8535 106.741C86.8576 106.571 86.8618 106.397 86.8701 106.223L87.0279 106.232C87.0196 106.406 87.0155 106.576 87.0113 106.745L86.8535 106.741ZM86.8908 105.867C86.8991 105.693 86.9116 105.523 86.9241 105.349L87.0778 105.361C87.0653 105.531 87.0529 105.701 87.0404 105.875L86.8908 105.867ZM86.9573 104.988C86.9739 104.814 86.9988 104.64 87.0196 104.475L87.1733 104.495C87.1484 104.661 87.1318 104.831 87.111 105.005L86.9573 104.988ZM87.0819 104.114C87.1152 103.936 87.1526 103.766 87.1899 103.604L87.3395 103.642C87.298 103.799 87.2647 103.965 87.2315 104.143L87.0819 104.114Z" fill="white"/>
<path d="M85.9727 123.921C85.9811 123.879 85.9977 123.792 86.0143 123.668L86.168 123.693C86.1514 123.817 86.1348 123.904 86.1265 123.95L85.9727 123.921Z" fill="white"/>
<path d="M87.1526 107.773C87.1235 107.466 87.0113 107.321 86.8369 107.193C86.6748 107.073 85.9603 107.147 85.1087 107.185C85.0131 107.185 84.9342 107.185 84.9093 107.193C84.7846 107.23 83.7045 108.473 83.206 109.012C83.206 109.012 83.1229 109.099 82.99 109.232C82.9775 109.24 82.9651 109.252 82.9609 109.256C82.9609 109.256 82.9651 109.256 82.9651 109.261C82.209 110.04 80.5224 112.418 80.0945 112.414C79.5835 112.406 74.3574 110.487 73.4393 110.371C73.4393 110.371 74.0749 114.129 74.5859 114.138C75.0969 114.146 80.3645 114.656 80.9793 114.411C81.5692 114.179 84.0161 110.081 84.2861 109.725C84.4523 109.621 84.6766 109.53 84.9425 109.464C85.2084 109.414 85.4992 109.335 85.6737 109.306C85.9562 109.261 86.517 109.116 86.6458 109.169C86.7704 109.223 87.0196 109.401 87.003 109.157C87.0446 109.169 87.0903 109.157 87.136 109.082C87.165 109.037 87.165 108.937 87.1526 108.809C87.1775 108.826 87.2066 108.834 87.2398 108.821C87.3811 108.768 87.1941 108.192 87.1526 107.773ZM86.4505 108.705C86.0932 108.701 85.8523 108.598 85.6529 108.49L85.4867 108.1C85.4867 108.1 85.8232 107.852 85.9478 107.852C86.0766 107.852 86.4297 107.988 86.4297 107.988L86.7247 108.743C86.6624 108.722 86.571 108.709 86.4505 108.705Z" fill="#D4AD9F"/>
<path d="M75.5289 105.635C74.4571 106.563 74.3449 107.827 74.4571 108.44C74.5983 109.248 74.32 109.402 73.1028 108.788C72.031 108.245 71.8524 108.034 71.1461 107.86C71.6322 107.313 72.326 104.678 71.9604 102.983C71.5948 101.28 75.5289 105.635 75.5289 105.635Z" fill="#D4AD9F"/>
<path d="M71.9604 100.575C72.5129 97.9235 74.4737 97.0823 76.5841 97.5174C78.6986 97.9525 79.5128 99.8627 78.9603 102.511C78.8565 103.02 78.7152 103.501 78.5449 103.944C78.5532 104.197 78.5823 104.491 78.6405 104.852C78.6031 105.071 78.2998 105.1 77.9799 105.08C77.2322 106.269 76.1604 106.928 74.831 106.654C72.7165 106.219 71.4079 103.223 71.9604 100.575Z" fill="#E2C8BB"/>
<path d="M74.777 106.654C75.0138 106.7 75.2381 106.721 75.4541 106.712C73.4975 105.523 75.3461 99.6059 75.9983 98.7357C75.6951 98.5534 76.9289 97.5962 76.5301 97.5174C74.4156 97.0782 72.4589 97.9235 71.9064 100.575C71.3539 103.223 72.6625 106.219 74.777 106.654Z" fill="#D4AD9F"/>
<path d="M76.688 100.646L79.1141 100.186C79.4339 99.6887 78.7817 97.5962 75.5331 97.2854C72.5586 97.0036 71.5824 98.7315 71.1545 100.43C70.7307 102.125 72.0102 104.885 72.0102 104.885C72.0102 104.885 74.5319 103.82 74.1871 103.19C73.9752 102.801 73.7634 101.458 74.3657 101.495C74.6565 101.512 74.8601 101.885 74.8601 101.885L76.688 100.646Z" fill="#1A1A1A"/>
<path d="M79.4215 99.61C79.6375 99.61 80.5223 100.368 79.8286 101.512C78.8191 101.354 76.0731 100.381 76.0731 100.381L77.2695 99.5312L79.4215 99.61Z" fill="#1A1A1A"/>
<path d="M69.4346 99.8586C69.4346 100.808 70.1408 101.578 71.0132 101.578C71.8856 101.578 72.5918 100.812 72.5918 99.8586C72.5918 98.9097 71.8856 98.1431 71.0132 98.1431C70.1408 98.1431 69.4346 98.9097 69.4346 99.8586Z" fill="#1A1A1A"/>
<path d="M76.1396 137.052C76.3681 138.639 74.8518 142.489 74.399 143.172C73.9462 143.852 72.8079 154.124 72.8079 154.804C72.8079 156.014 75.4583 158.202 77.2488 159.043C76.2352 159.677 73.1527 158.438 71.9397 158.015C70.98 157.679 70.1325 158.086 69.9331 157.485C69.4803 156.126 70.2364 155.674 70.2364 153.631C70.2364 151.592 68.799 145.36 70.2364 142.186C71.1171 140.247 70.6934 137.504 70.9177 136.824C71.142 136.145 76.1396 137.052 76.1396 137.052Z" fill="#D4AD9F"/>
<path d="M69.8667 155.699C69.6964 156.407 69.5302 157.199 69.9331 158.086C70.1242 158.5 70.2364 159.747 70.2364 159.747H71.3456L71.5367 158.612C71.5367 158.612 72.2138 158.819 73.1444 159.747C73.1859 159.789 77.7016 159.755 77.7016 159.755C77.7016 159.755 77.8512 158.728 76.2892 158.558C74.2577 158.338 72.2429 157.356 71.6863 156.888C70.7723 156.126 69.8667 155.699 69.8667 155.699Z" fill="#2B0C03"/>
<path d="M74.6648 137.276C74.8933 138.863 73.377 142.717 72.9242 143.396C72.4672 144.076 71.3331 154.348 71.3331 155.028C71.3331 156.237 73.9835 158.429 75.774 159.267C74.7562 159.901 71.6779 158.662 70.4607 158.239C69.5011 157.903 68.6578 158.309 68.4542 157.708C67.9972 156.349 68.7575 155.898 68.7575 153.855C68.7575 151.816 67.3159 145.584 68.7575 142.41C69.6382 140.471 69.2103 137.728 69.4388 137.048C69.6673 136.373 74.6648 137.276 74.6648 137.276Z" fill="#E2C8BB"/>
<path d="M68.3877 155.927C68.2174 156.635 68.0512 157.427 68.4542 158.318C68.6453 158.732 68.7575 159.979 68.7575 159.979H69.8625L70.0494 158.848C70.0494 158.848 70.7266 159.055 71.6571 159.979C71.6987 160.021 76.2144 159.988 76.2144 159.988C76.2144 159.988 76.3639 158.96 74.8019 158.79C72.7705 158.57 70.7557 157.588 70.199 157.12C69.2975 156.353 68.3877 155.927 68.3877 155.927Z" fill="#56211A"/>
<path d="M68.18 147.034L75.3711 141.254C75.6494 140.802 74.7271 141.358 75.1467 139.92C73.6927 138.942 71.0548 137.951 70.4025 138.324C70.0411 138.532 69.7046 138.784 69.3931 139.062C69.364 140.106 69.2643 141.333 68.8032 142.348C68.2423 143.587 68.1219 145.294 68.18 147.034Z" fill="url(#paint0_linear)"/>
<path d="M73.4518 108.801C74.0375 109.174 75.4583 110.239 75.4583 110.239C76.0274 111.494 77.4149 114.125 77.6185 114.772C77.9051 115.679 77.3526 117.038 77.0494 117.49C76.7461 117.946 76.3307 119.379 76.3307 119.984C76.3307 120.589 76.1811 123.08 76.1811 123.08C76.1811 123.08 70.8554 123.096 70.12 122.856C69.6672 122.703 69.5135 118.095 69.364 115.679C69.2103 113.263 68.9569 110.404 71.1046 107.748C72.2013 108.121 72.5794 108.241 73.4518 108.801Z" fill="#FFD94A"/>
<path d="M69.364 115.638C69.5177 118.058 69.6673 122.661 70.1201 122.815C70.1242 122.815 70.1242 122.815 70.1284 122.819L73.6803 122.172C73.6803 122.172 73.7551 120.962 73.6429 120.623C73.5307 120.283 72.3925 112.012 72.3925 110.877C72.3925 110.04 72.866 109.248 73.3147 108.676C72.542 108.196 72.1432 108.063 71.1088 107.707C68.9569 110.359 69.2103 113.218 69.364 115.638Z" fill="#FFD94A"/>
<path d="M69.8957 121.907C67.4696 124.741 70.8969 132.316 70.199 136.037C69.5717 139.406 71.3913 154.261 71.3913 154.261L72.866 154.041L75.7699 139.928L76.1396 137.052L76.0731 123.95L76.3099 122.019L69.8957 121.907Z" fill="#684AFF"/>
<path d="M67.507 127.245C66.8797 130.614 68.745 154.258 68.745 154.258H71.3871C71.466 152.091 71.4162 129.275 71.707 127.158C71.9687 125.235 72.6417 123.383 73.6637 122.012L69.8874 121.945C67.4696 124.784 68.2049 123.524 67.507 127.245Z" fill="#2B10B2"/>
<path d="M70.8097 108.001L70.6393 106.352L74.6981 108.428C75.2049 108.685 75.5082 109.215 75.4791 109.783L75.4583 110.234C75.4583 110.234 74.9515 109.874 72.7663 108.643C71.8649 108.138 70.8097 108.001 70.8097 108.001Z" fill="#2B10B2"/>
<path d="M76.3805 121.211H69.634V122.048H76.3805V121.211Z" fill="#9363A0"/>
<path d="M72.247 111.332C73.3521 110.574 74.374 110.752 75.0595 111.913C75.7449 113.069 77.8761 116.636 78.4078 116.723C78.9396 116.81 83.8458 115.091 84.4814 114.718C85.2914 114.241 86.2469 115.082 85.5158 115.816C84.7846 116.549 79.3965 119.835 77.7764 119.504C76.1562 119.168 73.2482 116.176 72.2263 114.449C70.8221 112.066 72.247 111.332 72.247 111.332Z" fill="#E2C8BB"/>
<path d="M74.2758 110.446C74.6996 111.063 76.9138 114.83 76.9138 114.83L73.9435 117.73C73.9435 117.73 70.2628 113.131 70.6741 111.494C71.0314 110.056 72.0284 109.281 72.9589 109.588C73.8812 109.89 74.2758 110.446 74.2758 110.446Z" fill="#5350CC"/>
<path d="M70.6684 111.482C70.2613 113.119 73.942 117.718 73.942 117.718L75.6079 116.09C74.9598 115.41 73.6595 113.973 72.9782 112.787C72.1598 111.366 71.869 110.189 72.0684 109.609C71.4577 109.841 70.9135 110.5 70.6684 111.482Z" fill="#5350CC"/>
<path d="M83.4677 115.186C83.6671 115.058 84.3318 114.826 84.5561 114.722C84.7763 114.618 85.6196 113.326 85.8107 113.292C86.006 113.259 86.7994 112.87 86.9407 112.878C87.0819 112.89 87.5098 112.969 87.5098 112.969C87.5098 112.969 87.6511 113.313 87.5555 113.33C87.4558 113.346 87.1484 113.321 87.1484 113.321L87.1359 113.326L86.2095 113.723C86.2095 113.723 87.1235 113.371 87.2024 113.379C87.2813 113.384 87.5389 113.342 87.6137 113.425C87.6885 113.512 87.6718 113.732 87.568 113.79C87.4683 113.848 86.6042 114.113 86.5834 114.192C86.5626 114.27 86.5627 114.283 86.6914 114.229C86.8244 114.175 87.2356 113.968 87.3478 113.964C87.46 113.955 87.6386 114.096 87.5472 114.25C87.4558 114.403 86.7371 114.631 86.7454 114.743C86.7537 114.855 86.8368 114.78 86.9656 114.743C87.0986 114.705 87.3894 114.631 87.435 114.635C87.4849 114.639 87.5472 114.817 87.46 114.925C87.3727 115.029 86.9407 115.281 86.8036 115.368C86.6707 115.451 86.3259 115.762 85.9977 115.928C85.6653 116.094 85.3039 116.048 84.9757 116.152C84.6475 116.255 83.6962 116.831 83.6962 116.831L83.4054 115.19L83.4677 115.186Z" fill="#E2C8BB"/>
</g>
<defs>
<linearGradient id="paint0_linear" x1="69.0697" y1="146.545" x2="73.6027" y2="137.77" gradientUnits="userSpaceOnUse">
<stop stop-color="white"/>
<stop offset="0.6429" stop-color="#C4BFB9"/>
</linearGradient>
<clipPath id="clip0">
<rect x="39.7316" y="69.2617" width="83.7584" height="90.7383" fill="white"/>
</clipPath>
</defs>
</svg>
