<svg width="130" height="149" viewBox="0 0 130 149" fill="none" xmlns="http://www.w3.org/2000/svg">
<circle cx="69.322" cy="60.1824" r="31.3688" fill="#FED549"/>
<path d="M102.775 11.6606C102.803 11.7101 102.803 11.7749 102.783 11.8294C102.767 11.8668 102.604 12.196 101.705 12.9297C100.536 13.8933 98.6111 15.1353 96.1397 16.5388C96.057 16.585 95.9516 16.5647 95.8914 16.4829L94.7525 14.8989L95.5055 16.6987C95.5406 16.7872 95.5058 16.8932 95.4231 16.9395C92.9419 18.3124 90.8672 19.2993 89.4342 19.7905C88.3351 20.1671 87.9691 20.1338 87.9323 20.1327C87.8698 20.1244 87.8201 20.0873 87.7925 20.0379C84.6382 14.3964 83.6501 9.36803 83.5767 8.99087L82.9811 7.61503C82.962 7.568 82.9595 7.51173 82.9827 7.46269C83.006 7.41365 83.0494 7.37492 83.0997 7.36125C85.1754 6.71259 87.1902 5.83843 89.092 4.7751C90.9938 3.71176 92.7905 2.44759 94.4332 1.0244C94.4711 0.988755 94.5269 0.972002 94.5808 0.977893C94.6348 0.983784 94.6814 1.0154 94.7115 1.05626L95.5717 2.28416C95.8601 2.54111 99.6178 6.01369 102.775 11.6606ZM102.389 11.7467C102.362 11.6972 102.334 11.6478 102.306 11.5984C102.153 11.7776 101.886 12.0498 101.425 12.4298C100.275 13.3756 98.3977 14.5985 95.987 15.968L96.1073 16.1315C99.0276 14.4698 100.586 13.3608 101.382 12.7139C102.027 12.1868 102.293 11.8725 102.389 11.7467ZM102.101 11.2444C100.666 8.78066 99.1432 6.76941 97.8965 5.30331C97.6982 5.47912 97.4734 5.63363 97.2419 5.76308C96.415 6.2254 95.4554 6.37259 94.5315 6.18254C93.6732 6.00629 92.904 5.54947 92.3461 4.88803C92.0772 5.06719 91.8139 5.24327 91.542 5.41694C91.5806 5.46021 91.6138 5.50657 91.6414 5.55601C91.8319 5.89658 91.7074 6.33392 91.3656 6.52501C91.1286 6.65755 90.8313 6.6435 90.6154 6.49024L90.2246 6.21842C90.197 6.23383 90.1695 6.24924 90.1474 6.26157L90.7832 7.39864C90.8354 7.49203 90.8037 7.60351 90.71 7.6559C90.6163 7.7083 90.5047 7.67696 90.4524 7.58357L89.8167 6.4465C89.7891 6.46191 89.7616 6.47732 89.7395 6.48965L89.7664 6.96489C89.7784 7.23219 89.6347 7.4928 89.4032 7.62225C89.0614 7.81334 88.6237 7.69038 88.4332 7.34981C88.4056 7.30037 88.3835 7.24785 88.3668 7.19224C88.0765 7.33295 87.7861 7.47366 87.4952 7.6003C87.7665 8.42201 87.7529 9.3165 87.4536 10.14C87.1317 11.0266 86.4982 11.7701 85.6769 12.2294C85.4398 12.3619 85.196 12.4694 84.9424 12.5463C85.5441 14.373 86.4547 16.7264 87.8019 19.2394C88.1984 19.198 89.9326 18.8701 94.8791 16.1477L93.7781 13.5186L92.8229 11.8102C92.7707 11.7168 92.8024 11.6053 92.8961 11.5529C92.9898 11.5005 93.1014 11.5319 93.1536 11.6253L94.1088 13.3336L95.7721 15.6484C98.7255 13.9682 100.3 12.85 101.101 12.1999C101.734 11.6876 102.003 11.3788 102.101 11.2444ZM97.6547 5.01312C97.5773 4.92658 97.5086 4.84244 97.4343 4.76138C97.2684 4.90463 97.0877 5.03448 96.8948 5.14235C96.2278 5.51529 95.4422 5.63728 94.6924 5.48688C94.0083 5.35028 93.3961 4.99312 92.9352 4.47932C92.8421 4.54579 92.749 4.61225 92.6584 4.67014C93.1617 5.24677 93.8438 5.65135 94.6052 5.80965C95.4408 5.98417 96.3134 5.84957 97.0576 5.43349C97.2726 5.31328 97.4698 5.17419 97.6547 5.01312ZM97.1815 4.47736C96.2209 3.4065 95.5337 2.75968 95.3539 2.59342C94.6736 3.17564 93.9781 3.73039 93.253 4.25836C93.6569 4.69592 94.1874 4.99775 94.7747 5.11641C95.4362 5.25127 96.1262 5.13946 96.716 4.80968C96.8783 4.71172 97.0345 4.60278 97.1815 4.47736ZM95.1145 2.29465L94.5226 1.44309C93.2221 2.55957 91.821 3.57368 90.3554 4.47245C90.0008 4.69235 89.6401 4.90126 89.2763 5.10468C88.9124 5.3081 88.5456 5.50603 88.1725 5.69297C86.6394 6.47088 85.0472 7.13036 83.4096 7.65666L83.8251 8.60685C85.3849 8.10963 86.9054 7.49022 88.3786 6.76028C88.3987 6.70574 88.4244 6.64813 88.4617 6.59842L88.9769 5.86333L88.36 6.0929C88.2656 6.13123 88.1503 6.08032 88.1177 5.98319C88.0827 5.89463 88.1206 5.79414 88.2032 5.7479C88.2143 5.74174 88.2198 5.73866 88.2308 5.73249L89.3893 5.29386L90.3696 4.53663C90.3806 4.53046 90.3862 4.52738 90.3972 4.52122C90.4799 4.47499 90.5798 4.49842 90.6424 4.57157C90.7026 4.6533 90.6911 4.77509 90.609 4.83539L90.0904 5.24074L90.9864 5.1868C91.0483 5.18103 91.1108 5.18934 91.1678 5.20072C92.5532 4.33961 93.874 3.36315 95.1145 2.29465ZM91.3107 5.74094C91.2861 5.69699 91.2505 5.65921 91.2039 5.62759C91.0006 5.7557 90.7887 5.8814 90.5823 6.00401L90.8301 6.17549C90.935 6.24663 91.0711 6.25707 91.1813 6.19542C91.3381 6.10055 91.3998 5.90024 91.3107 5.74094ZM90.5217 5.59804L90.0455 5.62635L90.2436 5.76072C90.3318 5.71141 90.4256 5.65901 90.5217 5.59804ZM89.3341 6.26927L89.3234 6.03011L89.0499 6.42097C89.1467 6.37407 89.2404 6.32167 89.3341 6.26927ZM95.09 16.6931L95.0137 16.505C92.5846 17.8416 90.5595 18.8008 89.1516 19.2851C88.5867 19.4784 88.2148 19.5638 87.9819 19.6002C88.0096 19.6497 88.0372 19.6991 88.0649 19.7486C88.231 19.735 88.6293 19.6709 89.419 19.388C90.3845 19.0573 92.1506 18.3077 95.09 16.6931ZM89.3748 6.98917L89.3585 6.68825C89.146 6.79988 88.9279 6.91458 88.7123 7.02071C88.7118 7.07149 88.7253 7.12161 88.7529 7.17104C88.842 7.33034 89.048 7.38821 89.2079 7.29883C89.3151 7.23169 89.386 7.1127 89.3748 6.98917ZM87.138 7.76394C87.0327 7.80843 86.9273 7.85292 86.8305 7.89982C87.0324 8.55847 87.0106 9.27007 86.7687 9.92447C86.5042 10.642 85.9944 11.2443 85.3218 11.6203C85.1289 11.7282 84.9237 11.8141 84.7203 11.8773C84.7504 11.9831 84.7861 12.0857 84.8194 12.1969C85.0479 12.1268 85.2752 12.0286 85.4846 11.9114C86.2288 11.4954 86.8004 10.8224 87.0893 10.0192C87.3532 9.28759 87.3712 8.49159 87.138 7.76394ZM86.4093 9.7865C86.6158 9.22401 86.6365 8.61398 86.4752 8.0408C85.6513 8.37892 84.812 8.68956 83.9567 8.95868C84.0042 9.19891 84.1953 10.1231 84.6046 11.5022C84.7884 11.4427 84.963 11.3667 85.1339 11.2712C85.7213 10.95 86.1778 10.4207 86.4093 9.7865Z" fill="#363636"/>
<path d="M102.303 11.5929C102.331 11.6423 102.358 11.6918 102.386 11.7412C102.288 11.8756 102.024 12.1814 101.37 12.706C100.571 13.3474 99.016 14.4619 96.0957 16.1236L95.9754 15.9601C98.3861 14.5906 100.264 13.3677 101.414 12.4219C101.883 12.0443 102.15 11.7722 102.303 11.5929Z" fill="#E8D885"/>
<path d="M97.8965 5.30333C99.1377 6.7725 100.666 8.78067 102.101 11.2444C102.003 11.3788 101.734 11.6877 101.09 12.2061C100.289 12.8561 98.7145 13.9744 95.7611 15.6545L94.0978 13.3398L93.1426 11.6314C93.0904 11.5381 92.9788 11.5067 92.8851 11.5591C92.7914 11.6115 92.7597 11.723 92.8119 11.8164L93.7671 13.5247L94.8681 16.1538C89.9215 18.8763 88.1905 19.2097 87.7909 19.2456C86.4437 16.7326 85.5275 14.3823 84.9314 12.5525C85.185 12.4756 85.4343 12.365 85.6658 12.2356C86.4927 11.7732 87.1262 11.0297 87.4426 10.1462C87.7419 9.32268 87.7555 8.42819 87.4842 7.60648C87.7776 7.47126 88.0655 7.33913 88.3558 7.19842C88.3724 7.25402 88.3946 7.30655 88.4222 7.35599C88.6126 7.69656 89.0504 7.81952 89.3922 7.62843C89.6292 7.4959 89.7729 7.23528 89.7554 6.97107L89.7285 6.49583C89.7561 6.48042 89.7836 6.46501 89.8057 6.45268L90.4414 7.58975C90.4936 7.68313 90.6052 7.71448 90.6989 7.66208C90.7927 7.60968 90.8244 7.4982 90.7722 7.40482L90.1364 6.26775C90.164 6.25234 90.1915 6.23693 90.2136 6.2246L90.6043 6.49642C90.8258 6.64659 91.1231 6.66064 91.3546 6.53119C91.6964 6.3401 91.8209 5.90276 91.6304 5.56218C91.6028 5.51275 91.5696 5.46639 91.531 5.42311C91.8029 5.24945 92.0693 5.07886 92.3351 4.89421C92.893 5.55565 93.6622 6.01247 94.5205 6.18872C95.4444 6.37877 96.4095 6.22849 97.2309 5.76925C97.4789 5.63056 97.6982 5.47913 97.8965 5.30333Z" fill="#B3E0B7"/>
<path d="M97.4344 4.76144C97.5086 4.8425 97.5774 4.92664 97.6547 5.01318C97.4753 5.17117 97.2726 5.31334 97.0576 5.43355C96.3135 5.84963 95.4408 5.98422 94.6052 5.80971C93.8438 5.6514 93.1648 5.25232 92.6584 4.6702C92.7515 4.60373 92.8446 4.53727 92.9352 4.47938C93.3962 4.99317 94.0083 5.35033 94.6925 5.48694C95.4423 5.63734 96.2223 5.51843 96.8948 5.14241C97.0847 5.02904 97.2684 4.90469 97.4344 4.76144Z" fill="#E8D885"/>
<path d="M95.3484 2.5965C95.5282 2.76276 96.2154 3.40958 97.176 4.48044C97.029 4.60586 96.8729 4.7148 96.702 4.81035C96.1121 5.14014 95.4221 5.25194 94.7606 5.11707C94.1733 4.99841 93.6428 4.69659 93.239 4.25903C93.9695 3.72798 94.6737 3.17564 95.3484 2.5965Z" fill="#B3E0B7"/>
<path d="M94.5226 1.4431L95.1145 2.29466C93.874 3.36317 92.5501 4.33414 91.1568 5.2069C91.0998 5.19552 91.0373 5.18722 90.9754 5.19298L90.0794 5.24692L90.598 4.84157C90.6801 4.78127 90.6971 4.65639 90.6314 4.57775C90.5743 4.50152 90.4689 4.48116 90.3862 4.52739L90.3555 4.47246C91.8211 3.57369 93.2221 2.55957 94.5226 1.4431Z" fill="#E8D885"/>
<path d="M91.2039 5.62761C91.2475 5.65373 91.2831 5.69152 91.3107 5.74095C91.3998 5.90026 91.3412 6.10606 91.1814 6.19545C91.0711 6.25709 90.935 6.24665 90.8301 6.17551L90.5823 6.00403C90.7887 5.88142 91.0006 5.75571 91.2039 5.62761Z" fill="#B3E0B7"/>
<path d="M90.3554 4.47247L90.3862 4.5274C90.3751 4.53357 90.3696 4.53665 90.3586 4.54282L89.3783 5.30004L88.2198 5.73868C88.2088 5.74484 88.2033 5.74793 88.1922 5.75409L88.1615 5.69916C88.5345 5.51222 88.9014 5.31428 89.2653 5.11086C89.6401 4.90128 90.0008 4.69237 90.3554 4.47247Z" fill="#E8D885"/>
<path d="M90.04 5.62943L90.5162 5.60111C90.4225 5.65351 90.3318 5.71139 90.2326 5.76687L90.04 5.62943Z" fill="#E8D885"/>
<path d="M89.3234 6.03008L89.3341 6.26923C89.2404 6.32162 89.1436 6.36853 89.0444 6.42401L89.3234 6.03008Z" fill="#E8D885"/>
<path d="M95.0138 16.505L95.09 16.6931C92.1451 18.3108 90.3845 19.0572 89.4165 19.3966C88.6324 19.6764 88.2255 19.7381 88.0625 19.7571C88.0348 19.7077 88.0072 19.6582 87.9795 19.6088C88.2124 19.5723 88.5843 19.487 89.1492 19.2937C90.5595 18.8008 92.5815 17.8361 95.0138 16.505Z" fill="#E8D885"/>
<path d="M88.9769 5.86334L88.4617 6.59842C88.4244 6.64813 88.3987 6.70575 88.3786 6.76028C86.9109 7.48714 85.3849 8.10963 83.8251 8.60684L83.4096 7.65665C85.0417 7.13344 86.6394 6.47088 88.1725 5.69297L88.2032 5.74791C88.1206 5.79414 88.0882 5.89155 88.1177 5.98319C88.1558 6.07725 88.2656 6.13123 88.36 6.0929L88.9769 5.86334Z" fill="#E8D885"/>
<path d="M89.3585 6.68823L89.3748 6.98916C89.3805 7.11577 89.3181 7.23717 89.2079 7.29881C89.048 7.38819 88.842 7.33033 88.7529 7.17102C88.7284 7.12708 88.7148 7.07697 88.7123 7.02069C88.9334 6.91148 89.146 6.79986 89.3585 6.68823Z" fill="#B3E0B7"/>
<path d="M86.8275 7.89431C86.9328 7.84982 87.0382 7.80533 87.135 7.75843C87.3627 8.48916 87.3502 9.28209 87.0863 10.0137C86.7974 10.8169 86.2257 11.4899 85.4816 11.9059C85.2666 12.0262 85.0448 12.1213 84.8163 12.1914C84.7831 12.0802 84.7474 11.9776 84.7172 11.8718C84.9261 11.8055 85.1258 11.7227 85.3188 11.6148C85.9858 11.2419 86.5011 10.6365 86.7656 9.91897C87.0075 9.26457 87.0238 8.55605 86.8275 7.89431Z" fill="#E8D885"/>
<path d="M86.4752 8.04079C86.642 8.61088 86.6158 9.22399 86.4094 9.78648C86.1779 10.4206 85.7213 10.9499 85.1315 11.2797C84.9606 11.3753 84.786 11.4512 84.6022 11.5108C84.1929 10.1317 84.0018 9.20747 83.9543 8.96724C84.8065 8.69263 85.6458 8.38199 86.4752 8.04079Z" fill="#B3E0B7"/>
<path d="M128.131 78.697C128.107 78.7985 128.029 78.8688 127.927 78.8766C127.857 78.8844 126.587 79.0094 125.474 78.6424C125.232 78.5643 124.996 78.4549 124.777 78.3222C124.652 78.658 124.526 78.9938 124.409 79.3452C123.359 82.539 123.429 86.4435 123.429 86.4825C123.429 86.5684 123.39 86.6465 123.312 86.6934C123.272 86.7168 122.92 86.912 122.05 86.9276C120.922 86.9511 119.472 86.67 117.74 86.1077C116.008 85.5377 114.676 84.9051 113.775 84.2179C113.085 83.6947 112.913 83.3277 112.897 83.2887C112.866 83.2106 112.874 83.1169 112.928 83.0544C112.952 83.0232 115.334 79.923 116.384 76.7292C116.494 76.3778 116.604 76.0342 116.698 75.6906C116.447 75.6671 116.196 75.6125 115.953 75.5344C114.841 75.1674 113.892 74.3162 113.845 74.2772C113.767 74.2069 113.751 74.1054 113.79 74.0116L114.449 72.5123C114.48 72.4342 114.558 72.3796 114.637 72.3718L114.903 72.3405C115.326 71.2707 117.325 66.2652 117.881 65.6248C118.242 65.211 118.923 65.2578 119.652 65.3125C120.279 65.3593 120.922 65.4062 121.306 65.1485C121.321 65.1329 121.4 65.0782 121.423 65.0548C121.94 64.6643 122.755 64.391 122.873 64.352C122.943 64.3286 123.022 64.3442 123.077 64.3832C123.077 64.3832 123.116 64.4066 123.131 64.4223C124.072 65.0548 125.153 65.414 126.289 65.453C126.313 65.453 126.352 65.453 126.352 65.453C126.423 65.453 126.493 65.4921 126.54 65.5468C126.611 65.6483 127.104 66.3355 127.292 66.9602C127.3 66.9914 127.332 67.0929 127.34 67.1163C127.496 67.5458 128.045 67.8894 128.57 68.2174C129.181 68.6001 129.761 68.9671 129.808 69.5137C129.878 70.3571 128.515 75.5656 128.217 76.6823L128.421 76.8619C128.484 76.9166 128.507 77.0025 128.491 77.0884L128.131 78.697ZM127.708 78.4237L127.998 77.1352L127.904 77.0493C127.582 77.1352 126.72 77.2992 125.365 76.9166C125.224 77.2289 125.083 77.5569 124.949 77.8927C125.819 78.4706 127.23 78.4471 127.708 78.4237ZM127.755 76.6042C128.256 74.7223 128.907 72.1141 129.197 70.6304C128.405 71.6221 126.877 73.6915 125.568 76.4793C126.76 76.8073 127.496 76.6745 127.755 76.6042ZM129.338 69.7323C129.346 69.6621 129.346 69.6074 129.338 69.5684C129.314 69.256 128.805 68.9358 128.319 68.6313C127.959 68.4048 127.559 68.1549 127.269 67.8582C127.065 68.4751 126.603 69.1935 126.579 69.2248C126.532 69.3029 126.446 69.3419 126.352 69.3341C126.266 69.3263 126.188 69.2638 126.156 69.1779L125.905 68.4595C125.874 68.3658 125.796 68.2955 125.702 68.2721C125.608 68.2486 125.506 68.2721 125.435 68.3345L123.688 69.8651C123.492 70.0447 123.343 70.1775 123.241 70.2555L123.312 70.7475C123.319 70.7866 123.312 70.8178 123.304 70.8568L118.375 85.8188C120.138 86.3498 121.29 86.4669 121.964 86.4591C122.481 86.4591 122.794 86.381 122.951 86.3342C122.951 85.5533 122.998 82.0939 123.954 79.2046C125.733 73.9336 128.891 70.2321 129.338 69.7323ZM126.438 68.5454C126.634 68.194 126.854 67.7333 126.885 67.4365C126.916 67.171 126.681 66.6712 126.438 66.2574C126.266 66.7337 125.984 67.2491 125.584 67.7957C125.663 67.7879 125.749 67.7957 125.827 67.8192C125.843 67.827 125.858 67.827 125.874 67.8348C126.101 67.9051 126.282 68.0847 126.36 68.3033L126.438 68.5454ZM125.717 66.7181C125.866 66.4448 125.984 66.1793 126.062 65.9138C125.529 65.8747 125.004 65.7732 124.503 65.6092C124.001 65.4452 123.515 65.2188 123.061 64.9298C122.967 65.1875 122.896 65.4765 122.857 65.781L125.717 66.7181ZM125.467 67.132L122.81 66.2652C122.74 67.4287 122.943 68.7172 123.084 69.4668L123.139 69.7245L123.335 69.5527C123.907 69.0295 124.832 68.1159 125.467 67.132ZM117.936 85.6782L122.849 70.7631L122.113 67.2491C122.089 67.1554 122.026 67.0773 121.932 67.0383C121.838 66.9992 121.737 67.0148 121.658 67.0695L121.031 67.499C120.953 67.5458 120.859 67.5536 120.78 67.5068C120.702 67.4599 120.655 67.3819 120.663 67.2881C120.663 67.2413 120.718 66.3901 120.922 65.781C120.506 65.8513 120.044 65.8201 119.613 65.7888C119.041 65.7498 118.445 65.7029 118.234 65.945C118.21 65.9762 118.179 66.0231 118.14 66.0778C118.194 66.7415 118.547 71.5909 116.831 76.8775C115.875 79.7747 113.861 82.5859 113.399 83.2184C113.493 83.3512 113.704 83.5932 114.12 83.9056C114.707 84.3429 115.844 85.0066 117.889 85.6782C117.905 85.6704 117.92 85.6704 117.936 85.6782ZM122.316 66.7259C122.324 66.1168 122.379 65.5077 122.544 64.9845C122.097 65.1719 121.619 65.4296 121.478 65.6639C121.329 65.9216 121.235 66.4214 121.18 66.8196L121.392 66.679C121.603 66.5385 121.87 66.5073 122.105 66.601C122.183 66.6322 122.254 66.679 122.316 66.7259ZM116.823 75.2298C116.909 74.8862 116.996 74.5427 117.066 74.1991C115.75 73.7071 115.146 73.0746 114.942 72.8091L114.817 72.8247L114.284 74.0351C114.66 74.3396 115.781 75.1908 116.823 75.2298ZM117.168 73.7305C117.771 70.7163 117.771 68.1393 117.724 66.8743C117.074 68.233 116.047 70.7241 115.334 72.5358C115.499 72.7466 116.024 73.2932 117.168 73.7305Z" fill="#363636"/>
<path d="M127.998 77.1352L127.708 78.4237C127.23 78.4471 125.811 78.4705 124.957 77.8849C125.09 77.5491 125.231 77.2289 125.373 76.9088C126.728 77.2914 127.59 77.1352 127.912 77.0415L127.998 77.1352Z" fill="#CAA172"/>
<path d="M129.197 70.6304C128.907 72.1141 128.256 74.7223 127.755 76.6042C127.496 76.6745 126.76 76.8073 125.568 76.4793C126.877 73.6915 128.405 71.6221 129.197 70.6304Z" fill="#E1B782"/>
<path d="M129.338 69.5683C129.338 69.6073 129.338 69.662 129.338 69.7323C128.891 70.232 125.733 73.9335 123.97 79.2045C123.014 82.1016 122.967 85.5532 122.967 86.3341C122.81 86.3809 122.497 86.459 121.979 86.459C121.305 86.4669 120.154 86.3497 118.39 85.8187L123.319 70.8568C123.327 70.8255 123.335 70.7865 123.327 70.7474L123.257 70.2555C123.351 70.1774 123.507 70.0446 123.703 69.865L125.451 68.3345C125.529 68.272 125.623 68.2486 125.717 68.272C125.811 68.2954 125.89 68.3657 125.921 68.4594L126.172 69.1778C126.203 69.2637 126.274 69.3262 126.368 69.334C126.454 69.3418 126.548 69.3028 126.595 69.2247C126.619 69.1856 127.081 68.4672 127.285 67.8581C127.575 68.1549 127.966 68.4047 128.335 68.6312C128.813 68.9358 129.314 69.2481 129.338 69.5683ZM126.282 73.1682C126.352 73.0589 126.313 72.9105 126.203 72.848C126.148 72.8168 124.895 72.0515 123.609 71.6923C123.484 71.6611 123.359 71.7314 123.319 71.8563C123.288 71.9812 123.359 72.1062 123.484 72.1452C124.706 72.481 125.945 73.2385 125.96 73.2463C125.976 73.2541 125.992 73.2619 126.007 73.2697C126.109 73.301 126.219 73.2619 126.282 73.1682Z" fill="#E1B782"/>
<path d="M126.203 72.8481C126.313 72.9184 126.352 73.059 126.282 73.1683C126.227 73.262 126.109 73.3011 126.007 73.2698C125.992 73.262 125.976 73.2542 125.96 73.2464C125.945 73.2386 124.706 72.4811 123.484 72.1453C123.359 72.1141 123.288 71.9813 123.319 71.8564C123.351 71.7315 123.484 71.6612 123.609 71.6924C124.895 72.0516 126.148 72.8091 126.203 72.8481Z" fill="#363636"/>
<path d="M126.893 67.4365C126.861 67.7332 126.642 68.1939 126.446 68.5453L126.36 68.3033C126.282 68.0768 126.101 67.905 125.874 67.8347C125.858 67.8269 125.843 67.8269 125.827 67.8191C125.749 67.7957 125.663 67.7879 125.584 67.7957C125.984 67.2491 126.274 66.7337 126.438 66.2573C126.689 66.6712 126.916 67.1632 126.893 67.4365Z" fill="#CAA172"/>
<path d="M126.054 65.9138C125.976 66.1793 125.858 66.4526 125.709 66.7181L122.849 65.781C122.888 65.4765 122.959 65.1875 123.053 64.9298C123.507 65.211 123.986 65.4452 124.495 65.6092C124.996 65.7732 125.521 65.8747 126.054 65.9138Z" fill="#BB9369"/>
<path d="M122.81 66.2651L125.467 67.1319C124.832 68.1159 123.907 69.0295 123.343 69.5449L123.147 69.7167L123.092 69.459C122.935 68.7171 122.732 67.4287 122.81 66.2651Z" fill="#BB9369"/>
<path d="M122.849 70.7631L117.936 85.6782C117.92 85.6704 117.905 85.6704 117.889 85.6626C115.844 84.991 114.715 84.335 114.12 83.8899C113.704 83.5776 113.493 83.3355 113.399 83.2027C113.869 82.5702 115.883 79.759 116.831 76.8619C118.539 71.5752 118.194 66.7259 118.14 66.0621C118.179 66.0074 118.21 65.9606 118.234 65.9293C118.445 65.6951 119.033 65.7341 119.613 65.7732C120.044 65.8044 120.506 65.8356 120.921 65.7654C120.718 66.3823 120.663 67.2334 120.663 67.2725C120.655 67.3584 120.702 67.4443 120.78 67.4911C120.859 67.538 120.953 67.5302 121.031 67.4833L121.658 67.0538C121.744 66.9992 121.838 66.9836 121.932 67.0226C122.026 67.0616 122.089 67.1319 122.113 67.2334L122.849 70.7631ZM122.606 71.0911C122.622 71.0364 122.622 70.9661 122.591 70.9115C122.559 70.8568 122.512 70.8099 122.457 70.7943C122.395 70.7787 122.332 70.7787 122.277 70.8099C122.222 70.8412 122.183 70.888 122.16 70.9427C122.144 71.0052 122.144 71.0676 122.175 71.1223C122.207 71.177 122.254 71.216 122.309 71.2394C122.363 71.2629 122.434 71.255 122.489 71.2238C122.544 71.1926 122.591 71.1457 122.606 71.0911ZM118.516 83.5151C118.531 83.4604 118.531 83.3902 118.5 83.3355C118.477 83.2808 118.422 83.234 118.367 83.2184C118.312 83.2027 118.241 83.2027 118.187 83.234C118.132 83.2652 118.093 83.3121 118.069 83.3667C118.053 83.4292 118.053 83.4917 118.085 83.5463C118.116 83.601 118.163 83.6478 118.218 83.6635C118.273 83.6791 118.343 83.6791 118.398 83.6478C118.453 83.6244 118.5 83.5698 118.516 83.5151ZM121.925 73.1604C121.964 73.0355 121.901 72.9027 121.776 72.8637C121.65 72.8246 121.517 72.8871 121.478 73.0121C121.439 73.137 121.501 73.2698 121.627 73.3088C121.752 73.3478 121.885 73.2854 121.925 73.1604ZM121.243 75.2298C121.282 75.1049 121.219 74.9721 121.094 74.9331C120.969 74.894 120.835 74.9565 120.796 75.0814C120.757 75.2064 120.82 75.3391 120.945 75.3782C121.07 75.4172 121.204 75.3547 121.243 75.2298ZM120.561 77.2992C120.6 77.1742 120.538 77.0415 120.412 77.0024C120.287 76.9634 120.154 77.0259 120.114 77.1508C120.075 77.2757 120.138 77.4085 120.263 77.4475C120.389 77.4866 120.522 77.4241 120.561 77.2992ZM119.879 79.3685C119.918 79.2436 119.856 79.1109 119.73 79.0718C119.605 79.0328 119.472 79.0952 119.433 79.2202C119.393 79.3451 119.456 79.4779 119.581 79.5169C119.707 79.556 119.84 79.4935 119.879 79.3685ZM119.198 81.4379C119.237 81.313 119.174 81.1802 119.049 81.1412C118.923 81.1021 118.79 81.1646 118.751 81.2895C118.712 81.4145 118.774 81.5472 118.9 81.5863C119.025 81.6331 119.158 81.5629 119.198 81.4379ZM121.736 71.3409C121.784 71.2238 121.721 71.0833 121.603 71.0364C120.349 70.5601 118.884 70.4351 118.829 70.4273C118.696 70.4195 118.586 70.5132 118.578 70.6381C118.571 70.7475 118.641 70.849 118.743 70.8802C118.759 70.888 118.774 70.888 118.798 70.888C118.814 70.888 120.263 71.013 121.447 71.4659C121.548 71.5205 121.689 71.4581 121.736 71.3409Z" fill="#E1B782"/>
<path d="M122.598 70.9115C122.63 70.9661 122.63 71.0286 122.614 71.0911C122.598 71.1535 122.551 71.2004 122.497 71.2238C122.442 71.255 122.379 71.2551 122.316 71.2394C122.254 71.2238 122.207 71.177 122.183 71.1223C122.152 71.0676 122.152 71.0052 122.167 70.9427C122.183 70.888 122.23 70.8334 122.285 70.8099C122.34 70.7787 122.403 70.7787 122.465 70.7943C122.52 70.8099 122.567 70.8568 122.598 70.9115Z" fill="#363636"/>
<path d="M118.508 83.3355C118.539 83.3902 118.539 83.4527 118.524 83.5151C118.508 83.5776 118.461 83.6245 118.406 83.6479C118.351 83.6791 118.289 83.6791 118.226 83.6635C118.171 83.6479 118.116 83.601 118.093 83.5464C118.061 83.4917 118.061 83.4292 118.077 83.3668C118.093 83.3043 118.14 83.2574 118.194 83.234C118.249 83.2028 118.312 83.2028 118.375 83.2184C118.437 83.234 118.477 83.2809 118.508 83.3355Z" fill="#363636"/>
<path d="M121.776 72.8637C121.901 72.9028 121.964 73.0355 121.925 73.1605C121.885 73.2854 121.752 73.3479 121.627 73.3088C121.501 73.2698 121.439 73.137 121.478 73.0121C121.517 72.8872 121.65 72.8247 121.776 72.8637Z" fill="#363636"/>
<path d="M121.094 74.9331C121.219 74.9721 121.282 75.1049 121.243 75.2298C121.204 75.3548 121.07 75.4173 120.945 75.3782C120.82 75.3392 120.757 75.2064 120.796 75.0815C120.835 74.9565 120.969 74.8941 121.094 74.9331Z" fill="#363636"/>
<path d="M120.412 77.0024C120.538 77.0415 120.6 77.1742 120.561 77.2992C120.522 77.4241 120.389 77.4866 120.263 77.4475C120.138 77.4085 120.075 77.2757 120.114 77.1508C120.154 77.0337 120.287 76.9634 120.412 77.0024Z" fill="#363636"/>
<path d="M119.73 79.0718C119.856 79.1108 119.918 79.2436 119.879 79.3685C119.84 79.4934 119.707 79.5559 119.581 79.5169C119.456 79.4778 119.393 79.3451 119.433 79.2201C119.472 79.103 119.605 79.0327 119.73 79.0718Z" fill="#363636"/>
<path d="M119.049 81.149C119.174 81.188 119.237 81.3208 119.198 81.4457C119.158 81.5707 119.025 81.6332 118.9 81.5941C118.774 81.5551 118.712 81.4223 118.751 81.2974C118.79 81.1724 118.923 81.1021 119.049 81.149Z" fill="#363636"/>
<path d="M121.595 71.0365C121.721 71.0833 121.776 71.2161 121.729 71.341C121.682 71.466 121.548 71.5206 121.423 71.4738C120.24 71.0209 118.79 70.8959 118.774 70.8959C118.759 70.8959 118.735 70.8881 118.72 70.8881C118.618 70.8569 118.547 70.7554 118.555 70.646C118.563 70.5211 118.68 70.4196 118.806 70.4352C118.884 70.4352 120.349 70.5601 121.595 71.0365Z" fill="#363636"/>
<path d="M122.544 64.9846C122.387 65.5156 122.324 66.1169 122.316 66.7259C122.254 66.6713 122.183 66.6322 122.105 66.601C121.87 66.5073 121.603 66.5385 121.392 66.6791L121.18 66.8197C121.235 66.4214 121.329 65.9216 121.478 65.6639C121.619 65.4297 122.097 65.172 122.544 64.9846Z" fill="#CAA172"/>
<path d="M117.074 74.1991C117.003 74.5349 116.917 74.8785 116.831 75.2299C115.789 75.1908 114.668 74.3475 114.292 74.0351L114.825 72.8247L114.95 72.8091C115.146 73.0668 115.75 73.7071 117.074 74.1991Z" fill="#CAA172"/>
<path d="M117.724 66.8821C117.771 68.1471 117.771 70.7163 117.168 73.7383C116.024 73.301 115.499 72.7544 115.334 72.5436C116.047 70.7319 117.074 68.2408 117.724 66.8821Z" fill="#E1B782"/>
<path d="M115.067 41.5236C114.833 41.5802 114.662 41.511 114.536 41.297C113.317 39.2831 112.098 37.2755 110.879 35.2616L110.456 34.563C110.065 34.8273 109.642 35.0413 109.162 35.2238C108.802 35.3623 108.593 35.3623 108.328 34.991C107.76 34.2106 107.198 33.4239 106.629 32.6372L106.187 32.0204C106.149 31.9701 106.111 31.9135 106.08 31.8631C106.029 31.7876 105.985 31.7184 105.928 31.6491C105.897 31.6114 105.802 31.4918 105.827 31.3345C105.852 31.1771 105.985 31.0953 106.035 31.0638C106.604 30.7114 107.166 30.359 107.734 30.0002L108.265 29.6793C108.454 29.5597 108.644 29.4401 108.833 29.3205C109.288 29.031 109.755 28.7353 110.229 28.4583C110.501 28.301 110.791 28.1751 111.075 28.0556C111.157 28.0178 111.246 27.9863 111.328 27.9486C111.65 27.8101 111.972 27.6717 112.294 27.5332L112.616 27.3947C112.66 27.3759 112.698 27.3759 112.724 27.3696L112.945 27.3444L113.008 27.5584L113.014 27.5961C113.027 27.6465 113.039 27.6905 113.039 27.7409C113.096 28.8422 113.216 29.7548 113.406 30.5981C113.526 31.1331 113.684 31.7435 114.025 32.2533C114.681 33.2351 115.597 33.77 116.734 33.8581C118.224 33.9651 119.544 33.663 120.669 32.9582C121.553 32.4043 122.134 31.6491 122.386 30.7177C122.5 30.3086 122.513 29.8681 122.424 29.3772C122.241 28.3451 121.85 27.3444 121.471 26.413C121.395 26.2305 121.319 26.0542 121.237 25.8717L121.167 25.7081C121.13 25.62 121.073 25.4941 121.142 25.362C121.218 25.2298 121.357 25.2109 121.458 25.192C122.652 25.0221 123.921 24.9907 125.449 25.0913C126.094 25.1354 126.744 25.1732 127.388 25.2046C127.856 25.2298 128.317 25.255 128.784 25.2864C128.923 25.2927 129.081 25.3053 129.182 25.4312C129.283 25.5571 129.264 25.7144 129.245 25.8529C129.068 27.2059 128.891 28.559 128.708 29.9058C128.651 30.3149 128.544 30.3904 128.152 30.4597C127.635 30.5541 127.091 30.5667 126.536 30.4974L126.517 31.0512C126.498 31.6428 126.479 32.2281 126.46 32.8197L126.378 34.9721C126.334 36.1049 126.296 37.244 126.252 38.3768C126.239 38.6726 126.005 38.7293 125.929 38.7481C125.317 38.9055 124.711 39.0565 124.098 39.2139L121.016 39.9943C119.993 40.2523 118.976 40.5103 117.953 40.7683C116.993 41.0138 116.027 41.2592 115.067 41.5173C115.073 41.5173 115.067 41.5236 115.067 41.5236Z" fill="black"/>
<path d="M114.947 41.0641H114.953C115.913 40.8061 116.879 40.5607 117.839 40.3152C118.862 40.0572 119.885 39.7991 120.902 39.5348L123.984 38.7544C124.584 38.6034 125.184 38.4523 125.784 38.3013C125.822 37.1811 125.866 36.0671 125.904 34.9532L125.986 32.8071C126.005 32.2218 126.024 31.6365 126.043 31.0449L126.075 29.9814L126.365 30.0128C126.397 30.0128 126.428 30.0191 126.46 30.0254C127.009 30.1135 127.546 30.1072 128.058 30.0128C128.108 30.0002 128.171 29.9939 128.209 29.9814C128.216 29.9562 128.222 29.9121 128.228 29.8555C128.411 28.5087 128.588 27.1556 128.765 25.8025C128.765 25.7899 128.765 25.7836 128.771 25.771C128.765 25.771 128.752 25.771 128.746 25.771C128.285 25.7396 127.818 25.7144 127.357 25.6892C126.706 25.6515 126.062 25.6137 125.412 25.5759C123.972 25.4815 122.772 25.5067 121.647 25.6577L121.66 25.6892C121.742 25.8717 121.824 26.0542 121.9 26.243C122.292 27.1996 122.683 28.2255 122.879 29.3017C122.98 29.8618 122.961 30.3653 122.835 30.8498C122.551 31.8946 121.9 32.7442 120.909 33.3672C119.696 34.1287 118.281 34.456 116.683 34.3364C115.389 34.242 114.359 33.6316 113.614 32.5239C113.223 31.9449 113.052 31.2841 112.926 30.7051C112.743 29.8744 112.623 28.987 112.559 27.9234L112.465 27.9612C112.143 28.0933 111.82 28.2318 111.505 28.3702C111.416 28.408 111.334 28.4458 111.246 28.4835C110.968 28.6031 110.703 28.7164 110.456 28.8611C109.989 29.1317 109.528 29.4275 109.08 29.717C108.89 29.8366 108.701 29.9625 108.505 30.0821L107.981 30.4156C107.438 30.7554 106.894 31.1016 106.345 31.4414C106.389 31.5044 106.427 31.561 106.465 31.6177C106.496 31.668 106.528 31.7183 106.566 31.7624L107.008 32.3792C107.57 33.1658 108.132 33.9462 108.701 34.7266C108.776 34.8273 108.802 34.8462 108.808 34.8525C108.808 34.8525 108.814 34.8525 108.827 34.8462C108.852 34.8399 108.896 34.8273 108.978 34.7958C109.503 34.5945 109.957 34.349 110.368 34.0469L110.564 33.9022L110.728 34.1413C110.747 34.1728 110.766 34.198 110.785 34.2294L111.271 35.0287C112.49 37.0363 113.709 39.0502 114.928 41.0641C114.94 41.0578 114.94 41.0641 114.947 41.0641Z" fill="#D791C4"/>
<path d="M99.616 55.233C99.616 55.233 100.431 53.7163 100.563 53.4897C100.696 53.2631 101.359 52.9359 102.149 52.6338C102.938 52.3317 104.151 52.2688 104.264 52.3569C104.384 52.4387 104.542 52.4702 104.668 52.8226C104.795 53.175 104.706 53.5401 104.706 53.5401C104.706 53.5401 105.066 53.8988 104.927 54.3456C104.927 54.3456 105.249 54.698 105.009 55.1826C105.009 55.1826 105.319 55.5351 105.111 55.8686C105.111 55.8686 104.447 56.1959 104.239 56.3847C104.031 56.5735 102.603 57.1588 101.151 57.5049C101.157 57.5049 99.6728 57.3728 99.616 55.233Z" fill="#E2A98A"/>
<path d="M101.984 54.6162C101.984 54.6162 101.909 55.4784 101.763 55.7113C101.618 55.9442 103.424 56.6868 103.424 56.6868C103.424 56.6868 103.033 54.7358 101.984 54.6162Z" fill="#C48D71"/>
<path d="M48.8714 68.6571C48.8714 68.6571 49.0798 66.9453 49.0988 66.6873C49.124 66.4229 48.7641 65.781 48.2967 65.0762C47.823 64.3713 46.8694 63.6349 46.7241 63.6349C46.5789 63.6349 46.4273 63.5657 46.1242 63.786C45.8147 64 45.6758 64.3524 45.6758 64.3524C45.6758 64.3524 45.1705 64.4405 45.0316 64.8873C45.0316 64.8873 44.5579 64.9943 44.4821 65.523C44.4821 65.523 44.0274 65.6363 44.0021 66.0265C44.0021 66.0265 44.3558 66.6747 44.419 66.9453C44.4821 67.2222 45.3095 68.5124 46.301 69.6326C46.301 69.6326 47.5957 70.3752 48.8714 68.6571Z" fill="#E2A98A"/>
<path d="M46.301 69.6326C46.301 69.6326 47.6462 70.8221 48.3409 70.8472C49.0356 70.8661 49.3893 68.9718 49.3893 68.9718L48.7893 67.8075L46.301 69.6326Z" fill="#E2A98A"/>
<path d="M98.7003 56.3154C98.7003 56.3154 99.376 55.6798 99.6729 55.1323C99.9697 54.5847 101.309 57.4797 101.309 57.4797C101.309 57.4797 99.635 57.549 98.9024 58.065C98.1634 58.5748 98.7003 56.3154 98.7003 56.3154Z" fill="#E2A98A"/>
<path d="M100.62 53.4582C100.62 53.4582 102.092 53.5778 102.868 53.9932C103.045 54.0876 103.197 54.2134 103.178 54.4085C103.159 54.6036 102.843 54.8239 102.199 54.805C101.561 54.7861 100.721 55.0568 100.721 55.0568C100.721 55.0568 100.071 54.8428 100.62 53.4582Z" fill="#E2A98A"/>
<path d="M47.2862 66.7943C47.2862 66.7943 46.8505 67.5432 46.8378 67.8138C46.8252 68.0844 44.9116 67.6565 44.9116 67.6565C44.9116 67.6565 46.3578 66.2908 47.2862 66.7943Z" fill="#C48D71"/>
<path d="M46.8568 63.8175C46.8568 63.8175 48.0125 65.63 47.741 65.8503C47.4694 66.0705 47.2357 65.9887 47.2357 65.9887L47.3683 66.9516C47.3683 66.9516 47.0968 67.6376 46.4273 67.1467C46.4273 67.1467 46.2442 67.8138 45.6505 67.26C45.6505 67.26 45.3284 67.6439 45.0126 67.4362C44.6905 67.2285 44.0022 66.0328 44.0022 66.0328C44.0022 66.0328 43.9453 65.6929 44.4569 65.5104C44.4569 65.5104 44.5011 64.9818 45.0063 64.8559C45.0063 64.8559 45.0884 64.4342 45.6379 64.3084C45.6379 64.3084 45.9663 63.4713 46.7242 63.6475C46.7305 63.635 46.8126 63.7419 46.8568 63.8175Z" fill="#D09D80"/>
<path d="M49.0735 66.6243C49.0735 66.6243 47.7978 65.8754 46.9262 65.7747C46.7304 65.7495 46.5347 65.7621 46.4336 65.9383C46.3389 66.1146 46.4652 66.4733 47.002 66.8257C47.5388 67.1782 48.0693 67.8767 48.0693 67.8767C48.0693 67.8767 48.7262 68.0781 49.0735 66.6243Z" fill="#E2A98A"/>
<path d="M72.6933 145.832C71.6639 146.141 71.3544 147.884 70.4829 148.4C69.605 148.91 65.3357 149.275 65.1842 147.941C65.0326 146.607 66.9778 145.411 67.8493 144.744C68.7272 144.077 70.6913 141.886 71.0892 141.012C71.0892 141.012 71.4429 141.565 72.4912 141.396C73.5396 141.226 73.7101 140.949 73.7101 140.949C73.6722 141.981 74.0322 142.711 74.1396 143.114C74.4933 144.498 73.7228 145.524 72.6933 145.832Z" fill="#E2D3CC"/>
<path d="M79.6719 146.072C78.8761 146.795 78.7246 147.941 77.853 148.457C77.6004 148.608 77.1015 148.753 76.5141 148.86C75.4468 149.048 74.089 149.092 73.4258 148.702C73.1985 148.57 73.0532 148.394 73.028 148.148C72.8764 146.814 74.8595 145.323 75.731 144.656C76.2678 144.246 76.8299 143.29 77.272 142.415C77.5499 141.868 77.7836 141.351 77.9351 141.012C77.9351 141.018 77.9857 141.106 78.112 141.2C78.2951 141.326 78.6298 141.458 79.2361 141.358C80.0761 141.219 80.3982 140.999 80.4929 140.917C80.4992 140.911 80.5056 140.911 80.5056 140.905C80.5119 140.898 80.5182 140.892 80.5182 140.892C80.5182 140.892 80.5182 140.892 80.5245 140.886C80.695 141.716 80.9666 142.572 81.074 142.969C81.4339 144.36 80.4235 145.386 79.6719 146.072Z" fill="#E2D3CC"/>
<path d="M72.1189 40.7897C72.1189 40.7897 75.4598 40.4435 76.6661 43.6595C77.8724 46.8754 79.0028 47.9265 79.1481 49.6194C79.7228 56.4541 82.9248 54.9059 82.0217 58.8519C81.1185 62.7916 80.4996 63.3895 80.4996 63.3895L72.8389 61.8916L65.0834 61.9168C65.0834 61.9168 68.1212 60.4064 67.4454 57.1904C66.7696 53.9745 65.0834 48.7005 66.037 45.107C66.9844 41.5134 70.1232 41.0666 72.1189 40.7897Z" fill="#253245"/>
<path d="M66.5991 86.6626C66.5991 86.6626 63.7824 96.4487 63.2898 98.9409C62.7972 101.439 61.4204 113.529 61.2751 115.587C61.1299 117.645 65.8728 127.286 66.1317 127.979C67.1359 130.672 71.2283 140.433 71.2283 140.433C71.2283 140.433 73.8745 142 73.5777 139.703C72.6809 132.736 72.2577 131.012 71.6262 127.393C70.2494 119.47 67.3948 118.431 67.8306 117.28C72.2388 105.599 73.1293 97.6697 73.7166 96.9837C74.3039 96.2977 74.386 97.3361 74.7334 98.8528C75.0744 100.37 74.5944 110.817 75.2134 114.851C75.5481 117.047 76.3122 121.968 76.5522 124.807C76.7985 127.645 78.0869 140.786 78.0869 140.786C78.0869 140.786 78.2574 141.276 80.2215 140.194C80.5499 140.011 82.1035 128.576 82.154 125.203C82.2046 121.824 80.7015 121.345 81.9077 114.8C84.4844 100.785 84.1308 98.3682 81.1246 88.2925C73.7734 63.6414 66.5991 86.6626 66.5991 86.6626Z" fill="#E2A98A"/>
<path d="M100.962 58.0149C100.842 57.8953 93.6991 63.3454 92.916 63.7986C91.3813 64.6797 89.714 64.6356 87.9772 64.7426C86.032 64.8622 83.8216 64.6545 81.9143 65.0384C80.9228 65.2335 80.8091 65.4915 80.2912 66.5425C78.8892 69.3935 78.4344 72.943 78.2513 76.0834C78.0555 79.356 79.3186 81.628 80.6386 84.5166C81.087 85.4984 81.7248 86.5117 80.8533 87.4053C80.0702 88.2109 78.5292 88.3745 77.4997 88.5067C74.9672 88.834 71.0895 89.0354 68.6517 88.0347C65.6707 86.8075 66.2012 83.0692 65.8855 80.4574C65.6707 78.7078 64.8245 76.0897 64.3382 74.3968C63.8582 72.7227 63.8076 72.0241 63.8961 70.2431C62.9677 72.8737 62.1846 77.3736 59.6773 79.0413C57.7384 80.3315 56.008 78.6008 54.6185 77.3924C51.9786 75.1016 49.3324 72.8108 46.6925 70.52C47.2546 70.0039 47.8167 69.4816 48.3788 68.9655C48.5619 68.7956 48.5746 68.7515 48.783 68.5816C49.2756 68.1851 49.2188 68.0467 49.7303 68.3928C50.0713 68.6257 50.9871 69.469 51.2776 69.7396C52.2376 70.627 53.0712 71.1682 54.0312 72.0556C54.8648 72.8297 56.2922 74.617 57.5679 73.994C58.5531 73.5157 58.8184 71.5207 59.1531 70.6333C60.0878 68.1662 61.0351 65.6803 62.153 63.2825C63.3466 60.7211 65.9991 59.3617 68.5632 58.3359C70.7863 57.4548 73.7609 57.631 76.0156 58.2037C77.6008 58.6065 78.1629 58.6316 79.7418 59.0659C81.2449 59.4813 82.6532 60.0162 84.1816 60.3309C85.9626 60.6959 87.7814 60.8218 89.594 60.8469C91.0213 60.8658 91.6087 60.6267 92.8086 59.7959C94.4254 58.682 96.7874 56.7499 98.5557 55.8562C99.7052 55.2772 100.09 57.1275 100.962 58.0149Z" fill="#D7544E"/>
<path d="M74.4304 54.157C74.4304 54.157 74.1589 57.4799 74.803 58.4806C75.4472 59.475 74.2536 60.828 71.7968 60.3686C69.3401 59.9092 69.4854 58.5183 69.4854 58.5183C69.4854 58.5183 70.1738 56.4667 69.9717 54.8241C69.7696 53.1752 74.4304 54.157 74.4304 54.157Z" fill="#E2A98A"/>
<path d="M76.0219 58.1974C76.0219 58.1974 73.8051 63.358 70.9379 64.4342C70.9379 64.4342 68.1085 61.9294 68.8664 58.2226C68.8727 58.2163 72.5231 56.3534 76.0219 58.1974Z" fill="#E2A98A"/>
<path d="M72.561 42.6714C72.561 42.6714 76.9882 43.307 76.3377 49.8208C75.6872 56.3345 71.7842 55.8184 71.5189 55.8122C71.26 55.8059 67.597 55.9506 67.2812 48.002C67.2875 48.002 67.1359 42.1239 72.561 42.6714Z" fill="#E2A98A"/>
<path d="M72.0495 45.0315C72.0495 45.0315 74.1209 47.1964 75.0809 48.2978C76.0409 49.3929 76.1546 51.5138 76.1546 51.5138C76.1546 51.5138 77.7713 49.5439 77.0956 47.2468C76.4198 44.9497 74.8157 40.4876 70.7611 41.8596C66.7065 43.2316 66.5549 49.267 67.0349 52.2564C67.0349 52.2627 68.8538 45.6546 72.0495 45.0315Z" fill="#253245"/>
<path d="M70.3505 55.5416C70.3505 55.5416 72.2452 56.4856 74.1651 54.994C74.1651 54.994 73.4262 56.215 72.1442 56.2842C70.8558 56.3471 70.3505 55.5416 70.3505 55.5416Z" fill="#9F7A64"/>
<path d="M81.2007 85.8257C81.2007 85.8257 85.6721 95.0519 82.6659 113.775C82.6659 113.775 73.5462 112.925 59.8731 111.95C59.8731 111.95 66.0939 86.7697 66.2707 85.1712C66.4412 83.5663 81.2007 85.8257 81.2007 85.8257Z" fill="#D7544E"/>
<path d="M71.1523 140.25C71.1523 140.25 72.428 141.1 73.609 139.967L73.7038 140.949C73.7038 140.949 71.6891 142.755 71.1523 140.817V140.25Z" fill="#E2A98A"/>
<path d="M78.4592 140.086C78.4592 140.086 79.2234 140.772 80.3729 139.747L80.5244 140.892C80.5244 140.892 78.5603 142.893 78.0235 140.949L78.4592 140.086Z" fill="#E2A98A"/>
<path d="M71.1523 140.81C71.1523 140.81 70.1039 142.056 70.2049 142.264C70.306 142.472 72.5985 142.931 72.9459 142.447C73.2932 141.962 73.7037 140.949 73.7037 140.949C73.7037 140.949 71.7017 141.836 71.1523 140.81Z" fill="#E2D3CC"/>
<path d="M78.093 140.785C78.093 140.785 77.1141 142.157 77.2151 142.365C77.3162 142.572 79.3498 142.9 79.6971 142.409C80.0445 141.924 80.5245 140.886 80.5245 140.886C80.5245 140.886 78.6424 141.811 78.093 140.785Z" fill="#E2D3CC"/>
<path d="M66.1318 83.8306C66.1318 83.8306 71.5 85.8131 79.2618 81.4454C79.2618 81.4454 79.5712 82.0748 79.9186 82.9432C79.9186 82.9432 72.8452 87.292 66.2707 85.1648C66.2644 85.1648 66.0434 84.1705 66.1318 83.8306Z" fill="#EA5B55"/>
<path d="M64.5845 65.7495C63.9655 67.348 63.8961 70.243 63.8961 70.243C63.8961 70.243 63.694 70.9983 63.3719 71.8982C63.2898 67.5998 64.5845 65.7495 64.5845 65.7495Z" fill="#9E3D39"/>
<path d="M71.6831 58.5813C71.3989 58.5813 71.1463 58.5499 70.9253 58.5121C70.0348 58.3422 69.6622 57.9205 69.6432 57.9016L69.7506 57.4863C69.7569 57.4926 70.2495 57.9331 71.0326 58.0779C72.0873 58.273 73.2747 57.9835 74.4493 57.2534L74.6262 57.6499C73.4641 58.3737 72.4536 58.5813 71.6831 58.5813Z" fill="#B34641"/>
<path d="M107.378 47.4091C107.378 47.4091 107.107 48.9699 107.107 55.9053C107.107 62.8407 105.818 93.6472 105.818 93.6472H85.4632C85.4632 93.6472 80.7139 56.4151 87.1242 54.8983C87.1242 54.8983 88.8294 54.7536 93.3892 55.4333C97.949 56.1067 103.406 47.5916 107.378 47.4091Z" fill="#AB266C"/>
<path d="M104.056 52.4261C104.056 52.4261 102.066 53.2506 102.161 53.5841C102.256 53.9177 102.496 53.9869 102.496 53.9869L101.833 54.698C101.833 54.698 101.656 55.4155 102.49 55.3966C102.49 55.3966 102.256 56.0511 103.058 55.9316C103.058 55.9316 103.096 56.4288 103.481 56.4413C103.86 56.4539 105.123 55.8686 105.123 55.8686C105.123 55.8686 105.401 55.6358 105.092 55.1889C105.092 55.1889 105.325 54.7421 104.984 54.3519C104.984 54.3519 105.148 53.9302 104.776 53.5149C104.776 53.5149 104.99 52.6464 104.271 52.3506C104.264 52.3506 104.138 52.3883 104.056 52.4261Z" fill="#D09D80"/>
<path d="M59.4752 69.79C59.4752 69.79 58.149 73.9248 56.6017 73.157C55.0607 72.3892 52.4208 70.7088 52.4208 70.7088C52.4208 70.7088 48.9725 97.1791 52.6734 106.267C52.9892 107.035 60.3278 107.979 59.8668 102.805C59.4121 97.6259 58.3826 72.5906 59.4752 69.79Z" fill="url(#paint0_linear)"/>
<path d="M18.1062 59.9913C16.2563 61.3905 14.97 62.7437 15.3749 65.1335C15.5594 66.2365 15.2878 67.4621 15.2109 68.8561C14.6267 68.6672 14.2885 68.6059 13.9862 68.4578C10.0968 66.5531 6.20735 64.6382 2.32307 62.7233C1.33919 62.2381 1.29819 61.9879 2.19496 61.1964C3.03023 60.456 3.927 59.7717 4.84427 59.1538C6.2176 58.2296 6.7864 57.1572 6.6173 55.3291C6.30983 55.6202 6.04337 55.804 5.85889 56.0542C5.28496 56.8253 4.75202 57.627 4.18322 58.3981C3.68615 59.0721 2.25645 59.2662 1.67739 58.7709C1.4058 58.536 1.12396 58.3011 0.811374 58.1325C-0.213502 57.5964 -0.203253 56.6108 0.483414 55.5742C2.57416 52.4286 4.70591 49.3137 6.82228 46.1834C8.42621 43.8038 11.6187 43.288 13.4071 45.1468C13.5506 45.2949 13.5608 45.7187 13.4686 45.9587C13.238 46.5562 12.9049 47.1128 12.6333 47.6949C11.8595 49.3494 12.0082 50.815 13.2278 51.9588C13.8427 52.5359 13.9247 53.0363 13.5301 53.8278C13.2892 54.318 13.238 54.9002 13.0996 55.4465C13.1868 55.5078 13.2739 55.5691 13.3661 55.6253C13.7863 55.1146 14.2526 54.6346 14.6165 54.0882C14.9495 53.5878 15.2365 53.358 15.8514 53.4601C17.9729 53.8125 19.0439 53.1793 20.1149 51.0856C21.2782 48.8081 21.2782 48.8081 23.3279 50.0184C24.8755 50.9273 25.5673 52.6482 24.9626 54.507C23.7174 58.3674 22.4055 62.2075 21.0834 66.0425C20.6889 67.1812 20.1764 67.411 19.1259 67.1097C18.7467 67.0025 18.3829 66.8646 17.9986 66.7778C17.1684 66.594 16.5279 65.542 16.7738 64.6229C17.1684 63.1624 17.6142 61.702 18.1062 59.9913Z" fill="black"/>
<path d="M2.05661 61.8245C2.43581 62.1564 2.5383 62.2943 2.67666 62.3607C6.43795 64.2245 10.2095 66.0833 13.9708 67.9472C14.5806 68.2484 14.8727 67.9523 14.8932 67.3242C14.9291 66.3846 14.9393 65.4348 14.8727 64.5054C14.7753 63.1062 15.257 61.9777 16.2563 60.987C16.8251 60.4202 17.317 59.7615 17.8346 59.1334C19.8126 56.7334 20.6684 53.8022 21.7394 50.9784C21.8675 50.6413 21.806 50.243 21.8367 49.8754C21.7086 49.8345 21.5805 49.7988 21.4575 49.7579C21.0783 50.4013 20.6735 51.0345 20.325 51.6933C19.418 53.4141 18.0754 54.221 16.3126 54.0116C15.5081 53.9146 15.0162 54.1546 14.5857 54.9206C14.3141 55.4057 13.8734 55.8091 13.4532 56.1768C13.2841 56.3248 12.9357 56.3708 12.7307 56.2993C12.6077 56.2585 12.5257 55.8908 12.5616 55.6814C12.6538 55.1248 12.7256 54.5274 12.9818 54.0371C13.4071 53.215 13.2278 52.6737 12.6795 52.1222C11.8647 51.3052 11.4906 50.2328 11.7981 49.0175C12.0389 48.0728 12.5104 47.174 12.8486 46.2498C12.9306 46.02 12.8844 45.7442 12.8947 45.494C12.6538 45.6268 12.3464 45.7034 12.1824 45.9076C11.7827 46.403 11.465 46.9647 11.0909 47.4855C9.22563 50.0898 7.64732 52.8422 7.19125 56.0491C6.9504 57.7547 6.14586 58.9087 4.72641 59.7819C3.83989 60.3283 3.04562 61.0636 2.05661 61.8245Z" fill="#93ADE0"/>
<path d="M20.2431 56.1717C20.1457 56.141 20.0534 56.1155 19.9561 56.0849C19.2745 58.1734 18.5827 60.2569 17.9217 62.3505C16.9839 65.3021 16.7021 64.868 19.7357 65.7565C19.7972 65.777 19.8792 65.8127 19.9253 65.7872C20.2635 65.5982 20.7657 65.4655 20.8938 65.1795C21.3397 64.1735 21.6625 63.1114 22.011 62.0697C22.877 59.4705 23.7738 56.8815 24.5732 54.267C24.9985 52.8831 24.5322 51.7086 23.62 50.7946C22.9385 50.1154 22.549 50.2278 22.1544 51.198C21.4934 52.8423 20.8785 54.5121 20.2431 56.1717Z" fill="#93ADE0"/>
<path d="M11.7417 45.8311C12.1721 45.1826 11.9159 44.8762 11.3471 44.6566C10.025 44.1562 8.20588 44.9272 7.13489 46.5C5.47459 48.9409 3.81941 51.3869 2.17448 53.838C0.575676 56.2228 0.637171 56.5138 2.95339 57.8109C3.04051 57.8568 3.12762 57.959 3.20449 57.9488C3.49658 57.8977 3.91677 57.913 4.05513 57.719C5.25936 56.09 6.47384 54.4661 7.56021 52.7555C8.54409 51.198 9.33837 49.518 10.2659 47.9196C10.6963 47.1894 11.2446 46.5256 11.7417 45.8311Z" fill="#93ADE0"/>
<path d="M39.4631 26.1045C39.5957 26.2241 39.6084 26.4255 39.4947 26.5639L38.3768 27.9359C38.5347 28.0492 38.6863 28.1562 38.8379 28.2506C38.9263 28.3009 38.9894 28.3953 39.0021 28.496C39.0147 28.5967 38.9768 28.7037 38.9073 28.7729L37.4548 30.2015C37.5432 30.2708 37.6316 30.34 37.72 30.4029C37.8147 30.4722 37.8653 30.5792 37.859 30.6924C37.8526 30.8057 37.7895 30.9127 37.6884 30.9693L35.5412 32.1651L35.6675 32.3791C35.7117 32.4609 35.7243 32.5553 35.699 32.6434C35.6738 32.7315 35.6106 32.807 35.5285 32.8511L32.5476 34.3615C32.4655 34.4056 32.3707 34.4119 32.2823 34.3804C32.1939 34.3489 32.1244 34.286 32.0866 34.1979L31.9855 33.9713L29.7498 35.0034C29.6424 35.0538 29.5224 35.0412 29.4277 34.9783C29.333 34.9153 29.2698 34.8084 29.2761 34.6951C29.2761 34.5881 29.2761 34.4748 29.2698 34.3615L27.2552 34.6888C27.1541 34.7077 27.0467 34.6762 26.971 34.6007C26.8952 34.5314 26.8573 34.4307 26.8636 34.3238C26.8825 34.1475 26.8889 33.9587 26.8825 33.7636L25.1142 33.858C24.9374 33.8706 24.7795 33.7385 24.7605 33.5623C24.7542 33.5056 24.0595 27.5142 22.6511 24.5437C21.3754 21.8438 21.508 19.7796 21.5838 19.2069L18.3313 15.0595C18.1039 14.7637 17.9524 14.4113 17.9018 14.0336C17.7061 12.6302 15.8935 10.289 15.8746 10.2639C15.7925 10.1632 15.7798 10.0184 15.843 9.90514L16.8345 8.00451V7.99821L17.384 6.99126C17.4345 6.89686 17.5229 6.83392 17.6303 6.82133C17.7313 6.80875 17.8387 6.84021 17.9145 6.90944C18.2808 7.26188 18.9881 7.6206 19.967 7.94157C20.4281 8.09261 20.8512 8.2059 21.1101 8.26883C21.2112 8.02339 21.3691 7.6206 21.5143 7.15489C21.8238 6.1794 21.9564 5.39901 21.887 4.89554C21.8743 4.78855 21.9059 4.68785 21.9817 4.61233C22.0575 4.53681 22.1585 4.50534 22.2659 4.51793L23.4027 4.66268H23.409L25.531 4.98364C25.6636 5.00253 25.7647 5.09693 25.8026 5.2228C25.8089 5.25427 26.6426 8.09261 27.6657 9.07439C27.9436 9.33872 28.1393 9.66598 28.2467 10.0247L29.6993 15.0847C30.2045 15.3616 31.9602 16.4692 33.4002 19.0873C34.9728 21.9823 39.4189 26.0667 39.4631 26.1045ZM37.8653 27.5079L38.781 26.3814C38.3831 26.0038 37.5053 25.1668 36.5327 24.1472C34.7454 22.2655 33.4886 20.6732 32.8002 19.4146C31.9918 17.9356 31.0761 16.9853 30.4445 16.4503C30.0214 16.0916 29.674 15.8587 29.4656 15.7392C29.3646 15.8399 29.2635 15.9343 29.1625 16.0287C29.7751 16.5951 31.3729 18.1622 32.4276 19.9621L32.4907 20.0691C33.6086 21.9634 35.7622 25.6325 37.8653 27.5079ZM36.9495 29.761L38.1368 28.5904C35.7117 26.8849 33.1665 22.5487 31.9097 20.4089L31.8466 20.3019C30.8171 18.5523 29.194 16.979 28.6572 16.4818C28.512 16.6014 28.3604 16.7272 28.2088 16.8405C28.7835 17.5328 30.274 19.4208 31.1708 21.29C32.1623 23.3291 34.777 27.6842 36.9495 29.761ZM27.5962 10.2135C27.5267 9.96806 27.3878 9.7415 27.1983 9.55899C26.2068 8.60868 25.4363 6.31786 25.2152 5.61299L23.6743 5.38014L23.5543 8.47652C23.5479 8.57092 23.51 8.65274 23.4406 8.71567C23.4216 8.73455 23.3964 8.75342 23.3711 8.76601C23.3143 8.79119 23.2511 8.80378 23.1943 8.80378C22.948 8.7849 22.6764 8.7786 22.4238 8.78489L26.6615 17.0797C27.5204 16.5573 28.3162 15.9406 29.0298 15.2231L27.5962 10.2135ZM35.2001 31.5861L36.9179 30.6295C35.6801 29.5911 34.3665 27.8289 33.4444 26.4695C32.1118 24.506 31.0634 22.6053 30.5645 21.5732C29.693 19.7607 28.1962 17.8727 27.6594 17.2307C27.4509 17.3692 27.2425 17.5076 27.0341 17.6398L35.2001 31.5861ZM22.8974 8.11779L23.0048 5.29832L22.569 5.24168C22.5564 6.20458 22.1522 7.41292 21.8743 8.14925C22.228 8.09891 22.6069 8.1052 22.8974 8.11779ZM34.9033 32.4105L26.4468 17.9733C26.3457 18.03 26.2384 18.0866 26.1373 18.137C26.0299 18.1873 25.9289 18.244 25.8215 18.288L32.5539 33.6L34.9033 32.4105ZM26.0742 17.4132L21.7038 8.85412C21.6154 8.873 21.3754 8.95482 21.1922 9.12474C20.9333 9.3576 20.567 9.84849 20.3081 10.2701C20.2765 10.3205 20.226 10.3646 20.1754 10.396C20.1502 10.4086 20.1249 10.4212 20.0933 10.4212C20.0049 10.4401 19.9102 10.4212 19.8344 10.3708L17.2513 8.64014L16.5314 10.0184C16.9735 10.61 18.3755 12.5798 18.565 13.9392C18.6029 14.1973 18.7039 14.4427 18.8618 14.6441L22.0827 18.7537C23.4785 18.5335 24.83 18.0803 26.0742 17.4132ZM31.7139 33.3546L25.2089 18.5649C24.9753 18.6593 24.7416 18.7474 24.5079 18.8293C24.7163 19.6348 25.3668 21.9571 26.3205 23.7256C26.8636 24.7325 27.7857 26.7024 28.5941 28.9303C29.1561 30.4785 29.813 32.5679 29.9266 34.179L31.7139 33.3546ZM19.9228 9.62192C20.0807 9.38277 20.3081 9.07439 20.5481 8.81636C19.7839 8.60868 18.565 8.21848 17.7819 7.66466L17.5734 8.04856L19.9228 9.62192ZM23.8637 19.0369C23.6806 19.0936 23.4974 19.1376 23.308 19.188C23.3964 19.918 23.7121 22.1522 24.5268 24.0088L24.5774 24.1221C25.5752 26.394 27.5899 31.0008 27.552 33.9524L29.2004 33.6818C28.8025 30.7113 26.8068 26.0416 25.7268 24.0402C24.7416 22.2151 24.0911 19.9054 23.8637 19.0369ZM22.6511 19.3327C22.5122 19.3579 22.3733 19.3831 22.2406 19.4083C22.1838 20.0376 22.1459 21.8942 23.2637 24.2542C23.8763 25.5507 24.4321 27.4954 24.9058 30.0442C25.1647 31.4288 25.3289 32.6245 25.3984 33.1721L26.851 33.0965C26.5668 30.3022 24.8553 26.4066 23.9774 24.3927L23.9269 24.2794C23.0806 22.3725 22.7522 20.1572 22.6511 19.3327Z" fill="#363636"/>
<path d="M38.781 26.3814L37.8653 27.508C35.7685 25.6325 33.6149 21.9634 32.497 20.0691L32.4339 19.9621C31.3792 18.1622 29.7814 16.5951 29.1688 16.0287C29.2698 15.9343 29.3709 15.8399 29.4719 15.7392C29.6803 15.8588 30.0277 16.0916 30.4508 16.4504C31.0761 16.9916 31.9981 17.9419 32.8065 19.4146C33.4949 20.6733 34.7517 22.2655 36.539 24.1473C37.5053 25.1731 38.3768 26.0101 38.781 26.3814Z" fill="#F1EAA2"/>
<path d="M38.1368 28.5904L36.9495 29.761C34.777 27.6905 32.1623 23.3354 31.1771 21.29C30.274 19.4146 28.7835 17.5328 28.2151 16.8405C28.3667 16.7273 28.5183 16.6014 28.6635 16.4818C29.2067 16.9853 30.8298 18.5524 31.8529 20.3019L31.916 20.4089C33.1665 22.5424 35.718 26.8849 38.1368 28.5904Z" fill="#EBE17C"/>
<path d="M27.1983 9.5653C27.3878 9.74781 27.5267 9.97438 27.5962 10.2198L29.0298 15.2294C28.3162 15.9406 27.5204 16.5636 26.6615 17.086L22.4238 8.79121C22.6764 8.78491 22.948 8.79121 23.1943 8.81009C23.2574 8.81638 23.3206 8.80379 23.3711 8.77233C23.3964 8.75974 23.4216 8.74086 23.4406 8.72198C23.51 8.65904 23.5479 8.57723 23.5543 8.48282L23.6743 5.38644L25.2152 5.6193C25.4363 6.32417 26.2068 8.61499 27.1983 9.5653Z" fill="#F1EAA2"/>
<path d="M36.918 30.6295L35.2002 31.5861L27.0341 17.6398C27.2489 17.5076 27.4573 17.3755 27.6594 17.2307C28.1899 17.8789 29.6867 19.7607 30.5645 21.5732C31.0635 22.6053 32.1118 24.5059 33.4444 26.4695C34.3728 27.8352 35.6801 29.5911 36.918 30.6295Z" fill="#F1EAA2"/>
<path d="M23.0048 5.29206L22.8974 8.11153C22.6069 8.09895 22.228 8.09895 21.8743 8.143C22.1522 7.40667 22.5564 6.19202 22.569 5.23541L23.0048 5.29206Z" fill="#EBE17C"/>
<path d="M26.4531 17.9734L34.9096 32.4106L32.5665 33.6L25.8342 18.288C25.9415 18.2377 26.0426 18.1873 26.1499 18.137C26.2447 18.0866 26.352 18.03 26.4531 17.9734Z" fill="#EBE17C"/>
<path d="M21.7038 8.85418L26.0742 17.4133C24.83 18.0741 23.4785 18.5335 22.0764 18.7475L18.8555 14.6379C18.6976 14.4365 18.5966 14.1973 18.5587 13.933C18.3692 12.5736 16.9671 10.6101 16.5251 10.0122L17.245 8.63391L19.8281 10.3646C19.9039 10.415 19.9986 10.4338 20.087 10.415C20.1123 10.4087 20.1439 10.4024 20.1691 10.3898C20.226 10.3646 20.2702 10.3206 20.3017 10.2639C20.5607 9.83596 20.927 9.35137 21.1859 9.11851C21.3754 8.95488 21.6154 8.87306 21.7038 8.85418ZM21.8238 10.2765C21.7859 10.1947 21.7101 10.138 21.628 10.1066C21.5459 10.0751 21.4512 10.0877 21.3691 10.1255C21.287 10.1632 21.2301 10.2387 21.1986 10.3206C21.1733 10.4024 21.1796 10.4968 21.2175 10.5786C21.2554 10.6541 21.3312 10.717 21.4133 10.7422C21.4954 10.7674 21.5901 10.7611 21.6722 10.7233C21.748 10.6856 21.8112 10.6101 21.8364 10.5282C21.8743 10.4464 21.868 10.352 21.8238 10.2765ZM22.6132 11.8247C22.5311 11.6611 22.329 11.5918 22.1585 11.6799C21.988 11.768 21.9248 11.9631 22.0133 12.1331C22.0954 12.2967 22.2975 12.3659 22.468 12.2778C22.6322 12.1897 22.7017 11.9883 22.6132 11.8247ZM23.409 13.3729C23.3269 13.2093 23.1248 13.14 22.9543 13.2281C22.7901 13.31 22.7206 13.5113 22.809 13.6813C22.8911 13.8449 23.0932 13.9141 23.2637 13.826C23.4216 13.7379 23.4911 13.5365 23.409 13.3729ZM24.1984 14.9211C24.1163 14.7574 23.9142 14.6882 23.7437 14.7763C23.5795 14.8581 23.51 15.0595 23.5985 15.2295C23.6806 15.3931 23.8827 15.4623 24.0532 15.3742C24.2174 15.2861 24.2805 15.0847 24.1984 14.9211ZM24.9879 16.4693C24.95 16.3937 24.8742 16.3308 24.7921 16.2993C24.71 16.2742 24.6153 16.2805 24.5332 16.3182C24.4511 16.356 24.3942 16.4315 24.3626 16.5133C24.3374 16.5951 24.3437 16.6895 24.3816 16.7713C24.4195 16.8532 24.4953 16.9098 24.5774 16.9413C24.6595 16.9664 24.7542 16.9602 24.8363 16.9224C24.9121 16.8846 24.9753 16.8091 25.0068 16.7273C25.0321 16.6392 25.0258 16.5511 24.9879 16.4693Z" fill="#F1EAA2"/>
<path d="M21.628 10.1065C21.7101 10.1317 21.7859 10.1946 21.8238 10.2764C21.8617 10.352 21.868 10.4464 21.8427 10.5345C21.8175 10.6163 21.7543 10.6918 21.6785 10.7296C21.5964 10.7674 21.508 10.7736 21.4196 10.7485C21.3375 10.7233 21.2617 10.6604 21.2238 10.5848C21.1859 10.503 21.1733 10.4149 21.2049 10.3268C21.2301 10.245 21.2933 10.1695 21.3754 10.1317C21.4512 10.0876 21.5459 10.0813 21.628 10.1065Z" fill="#363636"/>
<path d="M22.1649 11.6799C22.3291 11.598 22.5312 11.661 22.6196 11.8246C22.7017 11.9882 22.6385 12.1896 22.4743 12.2777C22.3101 12.3596 22.108 12.2966 22.0196 12.133C21.9312 11.9631 21.9943 11.7617 22.1649 11.6799Z" fill="#363636"/>
<path d="M23.1059 13.8575C23.2907 13.8575 23.4406 13.7081 23.4406 13.5239C23.4406 13.3397 23.2907 13.1903 23.1059 13.1903C22.921 13.1903 22.7711 13.3397 22.7711 13.5239C22.7711 13.7081 22.921 13.8575 23.1059 13.8575Z" fill="#363636"/>
<path d="M23.7437 14.7762C23.9079 14.6944 24.11 14.7573 24.1984 14.921C24.2805 15.0846 24.2174 15.286 24.0532 15.3741C23.889 15.4559 23.6869 15.393 23.5985 15.2294C23.51 15.0594 23.5795 14.858 23.7437 14.7762Z" fill="#363636"/>
<path d="M24.7921 16.2993C24.8742 16.3244 24.95 16.3874 24.9879 16.4692C25.0258 16.551 25.0321 16.6391 25.0068 16.7272C24.9816 16.809 24.9184 16.8845 24.8363 16.9223C24.7542 16.9601 24.6658 16.9727 24.5774 16.9412C24.4953 16.916 24.4195 16.8531 24.3816 16.7713C24.3437 16.6894 24.3311 16.6013 24.3627 16.5132C24.3879 16.4314 24.4511 16.3559 24.5332 16.3181C24.6153 16.2804 24.7037 16.2741 24.7921 16.2993Z" fill="#363636"/>
<path d="M25.2089 18.5649L31.7139 33.3546L29.9266 34.179C29.813 32.5679 29.1561 30.4785 28.5941 28.9303C27.7857 26.7024 26.8636 24.7388 26.3205 23.7256C25.3668 21.9508 24.7163 19.6348 24.5079 18.8293C24.7479 18.7475 24.9816 18.6593 25.2089 18.5649Z" fill="#F1EAA2"/>
<path d="M20.5481 8.82266C20.3081 9.0807 20.0807 9.38908 19.9228 9.62823L17.5735 8.05486L17.7819 7.67096C18.565 8.21849 19.7839 8.61498 20.5481 8.82266Z" fill="#EBE17C"/>
<path d="M23.3143 19.188C23.4974 19.1439 23.6869 19.0936 23.87 19.037C24.0974 19.9055 24.7479 22.2151 25.7331 24.0465C26.8131 26.0416 28.8025 30.7113 29.2067 33.6881L27.5583 33.9587C27.6025 31.0008 25.5815 26.4003 24.5837 24.1284L24.5332 24.0151C23.7185 22.1522 23.3964 19.918 23.3143 19.188Z" fill="#EBE17C"/>
<path d="M22.2343 19.402C22.3732 19.3831 22.5122 19.3579 22.6448 19.3264C22.7459 20.1572 23.0743 22.3662 23.9079 24.2731L23.9584 24.3864C24.8426 26.4003 26.5478 30.296 26.832 33.0903L25.3794 33.1658C25.31 32.6182 25.1458 31.4225 24.8868 30.0379C24.4132 27.4891 23.8574 25.5381 23.2448 24.2479C22.1396 21.8942 22.1774 20.0313 22.2343 19.402Z" fill="#F1EAA2"/>
<path d="M34.4116 81.4328C34.399 81.4894 33.4012 87.1661 31.1465 92.9309C31.0707 93.1889 29.3719 98.7524 28.1845 102.189C28.1403 102.308 28.014 102.377 27.8877 102.34L25.5762 101.622C25.5131 101.603 25.4625 101.559 25.4309 101.503C25.3994 101.446 25.3994 101.377 25.4246 101.314C25.431 101.289 26.3214 98.9537 27.174 95.8762C27.9003 93.2582 28.7403 89.5954 28.7971 86.5053C27.0793 89.0793 25.6773 92.5659 24.7741 95.1273C23.7194 98.1419 23.1068 100.565 23.1005 100.59C23.0816 100.653 23.0437 100.71 22.9868 100.741C22.93 100.773 22.8605 100.779 22.7974 100.76L20.4859 100.043C20.3659 100.005 20.2901 99.8726 20.328 99.753C21.3195 96.2539 23.1005 90.7156 23.1889 90.4576C24.6289 84.441 27.0477 79.2049 27.073 79.1545C27.0983 79.0979 27.1488 79.0538 27.2056 79.0287C27.2625 79.0098 27.3319 79.0098 27.3888 79.035C29.555 80.0482 31.8539 80.7594 34.2096 81.1621C34.2727 81.1747 34.3295 81.2062 34.3611 81.2565C34.4053 81.3069 34.418 81.3698 34.4116 81.4328ZM30.6981 92.761C32.0307 89.3562 32.9212 85.9829 33.4264 83.7991C33.0159 83.5662 32.0812 82.9432 32.0623 82.1565C31.5065 82.0243 30.9507 81.8733 30.4076 81.7034L29.5676 84.3781L29.5992 84.3844C29.7255 84.4222 29.795 84.5543 29.7571 84.6802C29.7192 84.806 29.5866 84.8753 29.4603 84.8375L29.2013 84.7557C29.075 84.7179 29.0055 84.5858 29.0434 84.4599L29.9529 81.5523C29.4918 81.4013 29.0371 81.244 28.5887 81.0677C28.1214 81.7034 26.9972 81.6782 26.5299 81.6404C25.6962 83.7236 24.5026 87.0025 23.65 90.5583C23.65 90.5646 23.6437 90.5709 23.6437 90.5772C23.6247 90.6338 21.869 96.0713 20.8522 99.6397L22.7026 100.219C22.8858 99.5265 23.4542 97.4433 24.3194 94.9637C25.3046 92.1568 26.8835 88.2549 28.835 85.599C28.8982 85.5172 28.9992 85.4795 29.1003 85.5109C29.195 85.5424 29.2645 85.6305 29.2645 85.7312C29.3466 89.0227 28.4182 93.126 27.6224 95.9895C26.9214 98.5195 26.1951 100.559 25.9488 101.232L27.7993 101.811C28.9992 98.2992 30.6665 92.8302 30.6792 92.7736C30.6918 92.7736 30.6918 92.7673 30.6981 92.761ZM33.5338 83.3145C33.6033 83.0124 33.6601 82.7418 33.7106 82.5026C33.3191 82.4334 32.9338 82.3579 32.5486 82.2761C32.618 82.553 32.8643 82.8173 33.0917 82.9998C33.2496 83.1257 33.4075 83.2327 33.5338 83.3145ZM33.8054 82.0369C33.8432 81.8481 33.8748 81.6971 33.8938 81.5838C33.0349 81.4328 32.1823 81.2377 31.3486 80.9985L31.2097 81.4453C32.0623 81.6845 32.9338 81.8859 33.8054 82.0369ZM30.7486 81.3132L30.8876 80.8663C30.6855 80.8034 30.4834 80.7405 30.2813 80.6775L30.1424 81.1244C30.3444 81.1936 30.5465 81.2565 30.7486 81.3132ZM29.6939 80.9796L29.8329 80.5328C29.0119 80.2496 28.1972 79.9286 27.4077 79.5636C27.3635 79.6706 27.3004 79.809 27.2183 79.9853C28.0266 80.3566 28.854 80.6901 29.6939 80.9796ZM26.713 81.1936C27.1614 81.2188 27.7993 81.1747 28.115 80.8915C27.7487 80.7405 27.3888 80.5831 27.0288 80.4195C26.9404 80.6461 26.833 80.9041 26.713 81.1936Z" fill="#363636"/>
<path d="M33.4264 83.7992C32.9212 85.9893 32.0307 89.3626 30.6981 92.761C30.6981 92.7673 30.6918 92.7736 30.6918 92.7799C30.6729 92.8366 29.0119 98.3056 27.8119 101.817L25.9615 101.238C26.2078 100.565 26.9341 98.5321 27.6351 95.9959C28.4309 93.1324 29.3592 89.029 29.2771 85.7375C29.2771 85.6369 29.2077 85.5487 29.1129 85.5173C29.0182 85.4858 28.9108 85.5236 28.8477 85.6054C26.8962 88.2612 25.3173 92.1632 24.3321 94.9701C23.4605 97.4497 22.8921 99.5328 22.7153 100.225L20.8648 99.6461C21.8816 96.0777 23.6373 90.6402 23.6563 90.5835C23.6563 90.5772 23.6626 90.5709 23.6626 90.5646C24.5152 87.0151 25.7088 83.7362 26.5425 81.6468C27.0098 81.6846 28.1403 81.7034 28.6014 81.0741C29.0498 81.2503 29.5045 81.4076 29.9655 81.5587L29.0561 84.4663C29.0182 84.5921 29.0877 84.7243 29.214 84.7621L29.4729 84.8439C29.5992 84.8816 29.7318 84.8124 29.7697 84.6865C29.8076 84.5607 29.7382 84.4285 29.6118 84.3907L29.5803 84.3845L30.4202 81.7097C30.9697 81.8797 31.5191 82.0307 32.0749 82.1629C32.0812 82.9433 33.0159 83.5663 33.4264 83.7992Z" fill="#878E94"/>
<path d="M33.7106 82.5027C33.6601 82.7418 33.6033 83.0125 33.5338 83.3145C33.4075 83.2327 33.2433 83.1257 33.0917 82.9999C32.8644 82.8111 32.6181 82.553 32.5486 82.2761C32.9401 82.3579 33.3254 82.4335 33.7106 82.5027Z" fill="#636A79"/>
<path d="M33.8938 81.5839C33.8749 81.6971 33.8433 81.8482 33.8054 82.037C32.9275 81.8859 32.0623 81.6845 31.2034 81.4517L31.3423 81.0049C32.1886 81.2314 33.0412 81.4265 33.8938 81.5839Z" fill="#E1B782"/>
<path d="M30.8939 80.8664L30.755 81.3132C30.5529 81.2503 30.3508 81.1874 30.1487 81.1244L30.2876 80.6776C30.4897 80.7405 30.6918 80.8035 30.8939 80.8664Z" fill="#636A79"/>
<path d="M29.8329 80.5265L29.6939 80.9734C28.854 80.6839 28.0266 80.3503 27.2183 79.979C27.294 79.8028 27.3572 79.658 27.4077 79.5573C28.2035 79.9224 29.0119 80.2433 29.8329 80.5265Z" fill="#E1B782"/>
<path d="M28.1214 80.8916C27.8056 81.1748 27.1678 81.2125 26.7194 81.1936C26.833 80.9041 26.9467 80.6524 27.0415 80.4258C27.3951 80.5832 27.7551 80.7405 28.1214 80.8916Z" fill="#636A79"/>
<path d="M58.8701 17.308C58.8478 17.393 58.765 17.4466 58.6817 17.4367C58.6434 17.4345 57.8206 17.3216 57.313 16.8499C57.2475 17.0033 57.1883 17.1559 57.1479 17.3065C57.1339 17.3525 57.1005 17.3943 57.0581 17.4116C57.0164 17.4353 56.9656 17.4345 56.9198 17.4204C56.8802 17.4057 55.9749 17.0604 55.4666 16.5825C55.4206 16.6828 55.3746 16.7832 55.3405 16.8759C55.3203 16.9226 55.2806 16.965 55.2313 16.9768C55.1826 16.9949 55.1249 16.9885 55.0833 16.9549C55.0423 16.9277 54.1636 16.3634 53.5186 15.6781L53.5074 15.692C53.4504 15.7491 53.3628 15.7587 53.2947 15.7154C52.9085 15.4846 52.5536 15.1932 52.2627 14.8503C51.9656 14.508 51.7206 14.1219 51.5486 13.7088C51.5153 13.6362 51.5376 13.5511 51.6023 13.5059L51.6141 13.4983C51.0143 12.7636 50.5523 11.785 50.535 11.7425C50.5107 11.6943 50.5115 11.6434 50.5379 11.596C50.5581 11.5493 50.6047 11.5124 50.6541 11.5007C50.7528 11.4771 50.8571 11.4466 50.9614 11.4161C50.5567 10.8442 50.3331 9.90306 50.3283 9.85911C50.3165 9.80958 50.3242 9.76425 50.3513 9.72315C50.3785 9.68204 50.4202 9.65842 50.4695 9.64665C50.6253 9.6232 50.7796 9.58719 50.9457 9.54353C50.548 8.97726 50.5446 8.13898 50.5474 8.1069C50.5503 8.01764 50.6122 7.94729 50.6998 7.93768C50.7061 7.93699 51.4554 7.84203 52.6026 7.39206C53.6587 6.97751 55.2671 6.17196 56.9706 4.67613C58.784 3.08564 60.0446 3.26493 60.3045 3.32535L60.9973 2.71561C61.0377 2.67941 61.0995 2.66625 61.1516 2.67959C61.2038 2.69293 61.2524 2.73208 61.2704 2.78093C62.0776 4.76991 63.5474 6.45106 65.4056 7.51777C65.4528 7.54435 65.484 7.59811 65.4902 7.65461C65.4964 7.71111 65.4769 7.76408 65.4303 7.80096L64.7139 8.42601C64.7337 8.77963 64.647 10.009 62.938 11.5118C59.6555 14.3691 58.8736 17.2822 58.8701 17.308ZM58.5777 17.0669C58.6677 16.7902 58.8907 16.1685 59.3501 15.3366C59.9155 14.3151 60.9497 12.7784 62.6936 11.2464C63.225 10.7814 63.9228 10.044 64.2224 9.1979C64.3479 8.84104 64.3634 8.57885 64.3566 8.45889C64.2149 8.37914 64.0787 8.29242 63.9419 8.19944C63.7698 8.65037 63.2356 9.83993 62.1051 10.9615L62.0363 11.0263C60.8195 12.2272 58.4432 14.572 57.4725 16.5148C57.7696 16.857 58.3186 17.0128 58.5777 17.0669ZM55.6267 16.2536C55.9496 16.5993 56.5707 16.8933 56.8694 17.0194C57.606 14.9054 60.4158 12.1254 61.7932 10.7734L61.8621 10.7087C63.0162 9.57175 63.5254 8.32774 63.6467 7.99041C63.4821 7.87505 63.33 7.75833 63.1702 7.62974C62.9016 8.06586 62.1067 9.24591 60.8888 10.2627C59.5324 11.4028 56.7281 14.233 55.6267 16.2536ZM64.4987 8.13832L65.0071 7.69494C63.2504 6.6298 61.8459 5.02406 61.024 3.13199L60.5044 3.5893C61.3256 5.47509 62.7301 7.08083 64.4987 8.13832ZM55.0955 16.547C55.5976 15.4118 56.7123 14.0314 57.5862 13.0523C58.7864 11.7007 59.9975 10.5639 60.6639 10.0015C61.8755 8.98538 62.6676 7.78022 62.8987 7.40541C62.7105 7.24817 62.5334 7.07701 62.3564 6.90584L53.7579 15.4358C54.2154 15.9129 54.8079 16.3498 55.0955 16.547ZM53.3562 15.3528L62.121 6.66483C61.9633 6.49788 61.8113 6.32397 61.6648 6.14309L51.9218 13.7059C52.2291 14.3711 52.7359 14.9508 53.3562 15.3528ZM51.8819 13.2846L61.4441 5.86237C61.2886 5.65707 61.1386 5.44479 60.9943 5.22556C60.5903 5.40968 59.2977 6.03445 58.136 7.10229C57.4918 7.69399 56.2141 8.74282 54.7174 9.75849C53.6332 10.4938 52.1207 11.4223 50.9311 11.7752C51.0935 12.1005 51.4577 12.7657 51.8819 13.2846ZM60.8097 4.92815C60.7084 4.75502 60.6077 4.58817 60.5183 4.40739C60.1721 4.48351 58.8741 4.82932 57.5971 5.82723L57.5213 5.88637C55.9988 7.07007 52.8849 9.5022 50.6993 9.9518C50.7845 10.2665 50.9959 10.9231 51.2958 11.2904C53.4393 10.4579 56.606 8.04537 57.9055 6.84804C59.0727 5.77323 60.3452 5.13797 60.8097 4.92815ZM60.3566 4.0884C60.2838 3.94391 60.2165 3.79245 60.1562 3.64659C59.8664 3.60216 58.7586 3.54588 57.1816 4.92615C55.4378 6.45818 53.7815 7.28807 52.6947 7.71234C51.8145 8.05675 51.1652 8.19792 50.8858 8.24766C50.9022 8.5127 50.9899 9.08122 51.2871 9.42346C53.336 8.70932 55.9603 6.66131 57.3131 5.60425L57.3889 5.54511C58.6374 4.57575 59.8881 4.20337 60.3566 4.0884Z" fill="#363636"/>
<path d="M59.3501 15.3366C58.8906 16.1685 58.6677 16.7903 58.5777 17.067C58.3185 17.0128 57.7696 16.8571 57.4662 16.5155C58.4438 14.5784 60.814 12.2343 62.03 11.027L62.0989 10.9623C63.23 9.84696 63.7635 8.65112 63.9356 8.20019C64.0718 8.2869 64.2079 8.37361 64.3503 8.45964C64.3509 8.58029 64.3416 8.84179 64.2162 9.19865C63.9172 10.0511 63.2187 10.7822 62.6873 11.2471C60.9497 12.7785 59.9092 14.3159 59.3501 15.3366Z" fill="#CAA172"/>
<path d="M56.8701 17.0257C56.5713 16.8996 55.9503 16.6057 55.6274 16.2599C56.7288 14.2393 59.5331 11.4091 60.8902 10.2753C62.1074 9.25222 62.9022 8.07217 63.1716 7.64233C63.3244 7.76533 63.4834 7.88766 63.6481 8.00301C63.5261 8.33408 63.0169 9.57808 61.8635 10.7213L61.7946 10.786C60.4165 12.1317 57.6067 14.9117 56.8701 17.0257Z" fill="#E1B782"/>
<path d="M65.0064 7.68869L64.4979 8.13206C62.7301 7.08085 61.3248 5.46886 60.5093 3.57611L61.0289 3.11879C61.8451 5.01782 63.2434 6.62424 65.0064 7.68869Z" fill="#CAA172"/>
<path d="M57.5862 13.0524C56.7123 14.0314 55.5976 15.4118 55.0954 16.547C54.8079 16.3499 54.2154 15.913 53.7641 15.4352L62.3626 6.90518C62.5334 7.07703 62.7167 7.24751 62.9049 7.40475C62.6738 7.77956 61.8818 8.98472 60.6701 10.0009C59.9975 10.5639 58.7864 11.7007 57.5862 13.0524Z" fill="#CAA172"/>
<path d="M62.1203 6.65856L53.3555 15.3466C52.729 14.9452 52.2291 14.3711 51.9142 13.6941L61.6572 6.13123C61.8043 6.31839 61.9626 6.49162 62.1203 6.65856Z" fill="#E1B782"/>
<path d="M61.4441 5.86241L51.8819 13.2847C51.4577 12.7658 51.0935 12.1005 50.9318 11.7815C52.1213 11.4286 53.6283 10.5071 54.7181 9.76479C56.2148 8.74912 57.4925 7.70031 58.1367 7.10861C59.2983 6.04077 60.5903 5.40973 60.995 5.23188C61.1386 5.44483 61.2886 5.6571 61.4441 5.86241Z" fill="#CAA172"/>
<path d="M60.5182 4.40746C60.6133 4.58128 60.7083 4.75509 60.8097 4.92822C60.3452 5.13804 59.0727 5.7733 57.9054 6.84811C56.606 8.04544 53.4393 10.458 51.2958 11.2905C50.9965 10.9294 50.7845 10.2665 50.6993 9.95187C52.8842 9.496 56.005 7.06945 57.5213 5.88644L57.5971 5.8273C58.8748 4.83567 60.1727 4.48986 60.5182 4.40746Z" fill="#E1B782"/>
<path d="M60.1561 3.64666C60.2171 3.7988 60.2837 3.94398 60.3566 4.08847C59.888 4.20344 58.6373 4.57582 57.3833 5.55215L57.3075 5.61129C55.954 6.66207 53.3297 8.71007 51.2815 9.4305C50.9843 9.08826 50.9022 8.51275 50.8802 8.25467C51.1659 8.20425 51.8089 8.06377 52.6891 7.71936C53.7696 7.29578 55.4259 6.4659 57.176 4.93319C58.7578 3.53967 59.8656 3.59595 60.1561 3.64666Z" fill="#CAA172"/>
<defs>
<linearGradient id="paint0_linear" x1="51.4504" y1="46.3513" x2="57.7206" y2="108.016" gradientUnits="userSpaceOnUse">
<stop stop-color="#D99773"/>
<stop offset="1" stop-color="#F3BB65"/>
</linearGradient>
</defs>
</svg>
